<?xml version="1.0" standalone="no"?>
<!DOCTYPE svg PUBLIC "-//W3C//DTD SVG 1.1//EN" "http://www.w3.org/Graphics/SVG/1.1/DTD/svg11.dtd" >
<svg xmlns="http://www.w3.org/2000/svg">
<metadata></metadata>
<defs>
<font id="modern_no._20regular" horiz-adv-x="929" >
<font-face units-per-em="2048" ascent="1638" descent="-410" />
<missing-glyph horiz-adv-x="503" />
<glyph horiz-adv-x="0" />
<glyph horiz-adv-x="682" />
<glyph unicode=" "  horiz-adv-x="503" />
<glyph unicode="&#x09;" horiz-adv-x="503" />
<glyph unicode="&#xa0;" horiz-adv-x="503" />
<glyph unicode="!" horiz-adv-x="464" d="M156 199q49 0 81.5 -33t32.5 -82t-32.5 -82t-81.5 -33t-82 33t-33 82t33 82t82 33zM143 301q0 264 -30 424q-37 184 -72 371q0 82 35 153.5t82 89.5q43 -14 79.5 -88.5t36.5 -152.5q0 -104 -30 -217q-72 -264 -72 -580h-29z" />
<glyph unicode="&#x22;" horiz-adv-x="741" d="M164 778h-39q-84 428 -84 449q0 51 27.5 80.5t74.5 29.5q102 0 103 -106q0 -33 -17 -119q-32 -166 -65 -334zM473 776h-39q-23 111 -53.5 264.5t-30.5 186.5q0 51 28 80.5t75 29.5q102 0 102 -106q0 -35 -16 -121q-33 -166 -66 -334z" />
<glyph unicode="#" d="M213 477l80 344h-252v68h266l94 409h68l-94 -409h309l94 409h68l-94 -409h157v-68h-172l-80 -344h252v-67h-266l-94 -410h-68l94 410h-309l-94 -410h-68l95 410h-158v67h172zM281 477h309l80 344h-310z" />
<glyph unicode="$" horiz-adv-x="1193" d="M801 1114q-14 59 -53 105q-47 53 -127 75v-483q164 -39 260 -123q125 -109 125 -278q0 -158 -95 -267q-100 -117 -290 -149v-236h-39v230l-107 -6l-92 4v-228h-39v234q-119 18 -187.5 71.5t-97.5 131.5q-14 43 -14 81q0 59 30.5 100.5t54.5 45.5t42 4q49 0 78 -27 q37 -35 37 -102q0 -43 -29 -67.5t-63 -24.5q-18 0 -29.5 5t-18.5 15q-2 -8 -2 -22q0 -53 55.5 -104.5t143.5 -71.5v573q-150 45 -219 119q-84 88 -84 242q0 143 86 239q78 88 217 121v74h39v-66q43 4 65.5 6t43.5 2l90 -4v62h39v-66q76 -12 124 -40.5t89 -76.5 q63 -72 63 -159q0 -96 -70 -123q-18 -8 -43 -8q-94 0 -106 92q-6 43 18.5 78.5t61.5 35.5q12 0 22.5 -3t20.5 -11zM383 18l61 -4q70 0 138 11v512l-138 34l-61 17v-570zM621 33q109 29 156.5 91t47.5 155q0 104 -47 156t-157 89v-491zM383 858q23 -6 60.5 -14t72.5 -13 l66 -10v482l-86 6q-33 0 -53.5 -2t-59.5 -9v-440zM344 870v418q-78 -25 -117 -65q-49 -51 -49 -129q0 -161 166 -224z" />
<glyph unicode="%" d="M952 256q0 -119 -82 -199q-74 -72 -168 -71q-94 0 -167 67q-84 78 -84 203q0 119 84 199q74 70 167 69q94 0 168 -67q82 -76 82 -201zM825 256q0 139 -24.5 197.5t-98.5 58.5q-68 0 -95 -61.5t-27 -194.5q0 -137 24.5 -197.5t97.5 -60.5q68 0 95.5 62.5t27.5 195.5z M549 1069q0 -119 -82 -199q-74 -72 -168 -71q-94 0 -168 67q-82 76 -82 203q0 121 82 199q74 70 168 69q94 0 168 -67q82 -76 82 -201zM422 1069q0 137 -24.5 196.5t-98.5 59.5q-68 0 -95.5 -61.5t-27.5 -194.5q0 -137 24.5 -197.5t98.5 -60.5q68 0 95.5 62.5t27.5 195.5z M735 1319h41l-514 -1319h-41z" />
<glyph unicode="&#x26;" horiz-adv-x="1255" d="M573 903q80 35 115 107q29 59 29 153q0 57 -30 99.5t-81 42.5q-72 0 -108.5 -45.5t-36.5 -100.5q0 -43 16 -72zM696 248l-295 573q-80 -23 -118 -61q-53 -51 -76 -160q-8 -39 -8 -90q0 -84 23.5 -163t66.5 -140q51 -78 103 -117t100 -39q55 0 105 51.5t99 145.5zM942 186 q31 -59 64.5 -77.5t76.5 -18.5q70 0 92.5 79t22.5 265h25q0 -250 -29 -323q-51 -129 -233 -129q-104 0 -181 110q-16 25 -71 127q-70 -131 -144 -180q-88 -57 -254 -57q-98 0 -176 94q-84 102 -84 252q0 57 10.5 108t38.5 115q53 125 130 197.5t159 91.5q-23 41 -36 89 t-13 103q0 109 66.5 199t175.5 90q98 0 155.5 -49t57.5 -139q0 -82 -66 -150q-55 -57 -149 -96l227 -438l127 223q39 72 39 104q0 45 -51.5 60.5t-171.5 15.5v22h493v-22q-86 0 -150.5 -32t-103.5 -103l-168 -305z" />
<glyph unicode="'" horiz-adv-x="464" d="M164 778h-39q-84 428 -84 449q0 51 27.5 80.5t74.5 29.5q102 0 103 -106q0 -33 -17 -119q-32 -166 -65 -334z" />
<glyph unicode="(" horiz-adv-x="716" d="M41 457q0 311 231 579q176 205 400 303v-67q-123 -76 -211 -162q-123 -119 -189 -260q-82 -176 -82 -391q0 -219 80 -393q68 -147 187 -263q84 -80 215 -161v-68q-219 98 -398 303q-233 271 -233 580z" />
<glyph unicode=")" horiz-adv-x="716" d="M672 457q0 -311 -232 -580q-176 -205 -399 -303v68q127 78 213 161q121 117 186 260q82 178 82 396q0 217 -80 389q-68 143 -188 262q-84 82 -213 162v67q219 -98 397 -303q234 -270 234 -579z" />
<glyph unicode="*" d="M324 991q-145 47 -154 49q-57 18 -93 38t-36 55q0 12 10 32q18 31 51 31q16 0 37 -12.5t51.5 -39t145.5 -130.5q-20 94 -39 188q-8 41 -8 66q0 70 61 69q61 0 62 -69q0 -25 -9 -66q-20 -94 -38 -188q70 63 141 129q33 29 54.5 41t39.5 12q31 0 49 -33q8 -16 8 -33 q0 -31 -36 -53q-20 -10 -60 -24q-90 -31 -184 -62q143 -45 183 -59t61 -27q39 -20 38 -55q0 -12 -10 -33q-18 -31 -51 -31q-16 0 -36.5 12.5t-51.5 39t-145 131.5q18 -94 38 -189q8 -41 9 -65q0 -70 -62 -70q-61 0 -61 70q0 25 8 65q18 94 39 189q-61 -55 -141 -129 q-35 -33 -54.5 -43.5t-38.5 -10.5q-31 0 -49 33q-10 20 -10 33q0 31 39 53q16 10 59 25q101 34 183 61z" />
<glyph unicode="+" d="M449 367h-367v49h367v366h49v-366h366v-49h-366v-367h-49v367z" />
<glyph unicode="," horiz-adv-x="491" d="M20 -330q115 59 170 166q47 88 39 168q-12 -10 -27.5 -15t-31.5 -5q-41 0 -71.5 28.5t-30.5 71.5q0 55 33.5 93t97.5 38q57 0 90 -45t33 -121q0 -135 -62 -227q-68 -102 -227 -178z" />
<glyph unicode="-" horiz-adv-x="673" d="M455 492v-111h-414v111h414z" />
<glyph unicode="." horiz-adv-x="464" d="M166 231q53 0 89 -35.5t36 -89.5q0 -53 -36 -88.5t-89 -35.5t-89 35.5t-36 88.5t36 89t89 36z" />
<glyph unicode="/" horiz-adv-x="409" d="M555 1321h41l-514 -1321h-41z" />
<glyph unicode="0" d="M475 -18q-170 0 -297 182q-137 197 -137 495q0 299 135 494q127 184 299 184t299 -182q137 -197 137 -496t-132 -488t-304 -189zM475 0q82 0 123 166t41 496q0 317 -6 395q-20 264 -158 264q-80 0 -121 -165t-41 -494q0 -319 6 -398q21 -264 156 -264z" />
<glyph unicode="1" d="M117 1221q248 0 338 23.5t166 92.5h26v-1202q0 -59 8 -76q4 -8 28 -17t84 -15.5t134 -6.5v-20h-784v20q88 0 152.5 6.5t88 15.5t30.5 22.5t7 70.5v950q0 55 -11 70.5t-35.5 25t-74 12.5t-157.5 3v25z" />
<glyph unicode="2" d="M838 438v-84q0 -82 -7.5 -144.5t-31.5 -107.5q-33 -61 -79 -90.5t-99 -29.5q-63 0 -119 34.5t-94 94.5q-55 86 -78 104q-29 25 -88 25q-33 0 -62 -47q-37 -61 -37 -173h-37q0 264 117 398q63 74 213 137q104 45 155.5 147.5t51.5 235.5q0 117 -43 233q-35 94 -80 123 q-33 20 -96 21q-123 0 -205 -131q-72 -115 -72 -238q0 -25 3 -35q10 29 27.5 43.5t41.5 14.5q31 0 55.5 -23.5t34.5 -71.5q4 -14 4 -38q0 -55 -30.5 -94.5t-75.5 -39.5q-23 0 -39 9q-37 18 -56.5 67t-19.5 119q0 160 88 289q104 152 277 151q221 0 329 -172q80 -127 80 -295 q0 -135 -57 -206q-63 -80 -213 -113q-229 -51 -309 -114.5t-113 -176.5q16 14 49 14q14 0 219 -51q98 -25 170 -24q14 0 32 1t48 7q70 14 96 65q18 37 19 107q-2 43 -2 63z" />
<glyph unicode="3" d="M422 748q10 -2 31 -3q80 0 119.5 70t39.5 176q0 190 -53 266q-45 63 -131 64q-86 0 -150.5 -44t-82.5 -130q8 6 17 9t19 3q35 0 65 -36t21 -81q-8 -45 -40.5 -71.5t-75.5 -26.5q-72 0 -92 70q-6 25 -7 51q0 102 93 184q100 88 249 88q184 0 306 -110q109 -100 108 -226 q0 -113 -104 -180q-90 -57 -244 -80q184 0 283 -79q106 -88 106 -261q0 -205 -190 -325q-147 -94 -291 -94q-156 0 -266.5 103t-110.5 237q0 78 42 116.5t101 38.5q39 0 62 -14q51 -27 51 -94q0 -51 -33 -88t-88 -37q-12 0 -25.5 2t-25.5 6q-10 -76 63 -158q84 -92 203 -92 q86 0 162 74q100 96 100 274q0 203 -46 290t-126 87q-29 0 -60.5 -11t-64 -20.5t-59.5 -9.5q-49 0 -57 37q2 23 19 32t46 9q25 0 56.5 -6t60.5 -10z" />
<glyph unicode="4" d="M459 432v551l-346 -551h346zM684 360v-223q0 -59 8 -76q4 -8 27.5 -17t77 -15t96.5 -6v-23h-696v23q76 0 138 6t85.5 15t31 22.5t7.5 70.5v223h-418l606 961h37v-889h209v-72h-209z" />
<glyph unicode="5" d="M856 1343q-61 -133 -130 -193t-173 -60q-102 0 -281 65l-59 -465q78 98 146.5 130t181.5 32q141 0 242.5 -130t101.5 -314q0 -147 -131 -279q-147 -147 -365 -147q-127 0 -219 75q-100 82 -100 211q0 78 36.5 117t90.5 39q76 0 100 -62q12 -31 12 -67q0 -41 -16 -57 q-41 -47 -90 -48q-12 0 -22.5 4.5t-18.5 10.5q-4 -16 -4 -23q0 -63 61 -119q72 -63 178 -63q127 0 189 135q55 121 55 338q0 209 -40 280.5t-109 71.5q-133 0 -226 -110q-70 -84 -84 -172l-24 4l102 790q113 -45 184 -65q109 -31 193 -31q70 0 118 21.5t76 74.5z" />
<glyph unicode="6" d="M748 1208q-10 41 -50 70q-57 43 -149 43q-94 0 -156.5 -79t-77.5 -224q-4 -35 -4 -78v-264q35 90 80 127q59 49 168 49q141 0 239.5 -112.5t98.5 -299.5q0 -213 -112.5 -335.5t-311.5 -122.5q-205 0 -301 165.5t-96 466.5q0 289 114 490q133 233 369 233q133 0 203 -67 q59 -57 59 -142q0 -88 -59 -110q-31 -10 -51 -10q-45 0 -78 26.5t-33 69.5q0 51 25.5 84t70.5 33q12 0 25 -3.5t27 -9.5zM502 813q-111 0 -158 -127q-37 -98 -37 -266q0 -199 19 -273q37 -147 159 -147q92 0 136.5 101.5t44.5 299.5q0 150 -19 236q-39 176 -145 176z" />
<glyph unicode="7" d="M164 1214q35 82 69.5 102.5t108.5 20.5q86 0 191.5 -128t158.5 -128q72 0 108 69t36 187h22q2 -14 2 -43q0 -84 -33.5 -176t-74.5 -155q-94 -143 -119 -195q-61 -129 -62 -457q0 -182 -32.5 -255.5t-102.5 -73.5q-55 0 -86 38q-37 47 -37 156q0 82 45 193q55 133 195 344 q74 109 146.5 217t91.5 155q-37 -16 -65 -23t-58 -7q-39 0 -80 8q-70 20 -113 31q-82 23 -137 22q-45 0 -80 -14q-68 -29 -94 -139q-16 -66 -17 -144h-22q0 61 4 172t4 160v23q0 80 -12 163h22z" />
<glyph unicode="8" d="M680 760q35 45 58.5 107.5t23.5 131.5q0 164 -86 248q-74 72 -193 72q-113 0 -192.5 -64.5t-79.5 -183.5q0 -170 197 -237q41 -15 272 -74zM702 750q92 -23 151.5 -120.5t59.5 -232.5q0 -160 -110 -280q-125 -135 -330 -135q-182 0 -307 120.5t-125 282.5q0 90 76 176 q4 4 114 107q-70 41 -106.5 111.5t-36.5 162.5q0 158 105 270q117 125 301 125q174 0 284 -131q90 -106 90 -211q0 -139 -166 -245zM260 653q-49 -41 -68.5 -126t-19.5 -181q0 -170 80 -258t215 -88q139 0 221 78t82 203q0 211 -184 280q-164 45 -326 92z" />
<glyph unicode="9" d="M221 111q25 -47 53 -70q53 -39 146 -39q94 0 156.5 77t75 206t12.5 358q-33 -88 -84 -127q-61 -49 -170 -49q-141 0 -239.5 112.5t-98.5 299.5q0 213 114.5 335.5t302.5 122.5q193 0 302.5 -171t109.5 -464q0 -289 -119 -489q-137 -231 -372 -231q-133 0 -207 69 q-63 59 -64 142q0 90 68 108q23 6 43 6q45 0 75.5 -28.5t30.5 -73.5q0 -47 -25.5 -75t-66.5 -28q-12 0 -22.5 2.5t-20.5 6.5zM467 506q115 0 160 110q35 86 35 283q0 180 -27 272q-43 147 -152 148q-92 0 -135 -100.5t-43 -300.5q0 -203 39 -307.5t123 -104.5z" />
<glyph unicode=":" horiz-adv-x="464" d="M166 1042q53 0 89 -35.5t36 -88.5t-36 -89t-89 -36t-89 35.5t-36 89.5q0 53 36 88.5t89 35.5zM166 231q53 0 89 -35.5t36 -89.5q0 -53 -36 -88.5t-89 -35.5t-89 35.5t-36 88.5t36 89t89 36z" />
<glyph unicode=";" horiz-adv-x="464" d="M20 -330q115 59 170 166q47 88 39 168q-12 -10 -27.5 -15t-31.5 -5q-41 0 -71.5 28.5t-30.5 71.5q0 55 33.5 93t97.5 38q57 0 90 -45t33 -121q0 -135 -62 -227q-68 -102 -227 -178zM193 1042q53 0 88.5 -35.5t35.5 -88.5t-35.5 -89t-88.5 -36t-89 35.5t-36 89.5 q0 53 36 88.5t89 35.5z" />
<glyph unicode="&#x3c;" horiz-adv-x="614" d="M416 874h45l-252 -444l182 -430h-55l-295 432z" />
<glyph unicode="=" d="M784 295h-620v49h620v-49zM784 436h-620v49h620v-49z" />
<glyph unicode="&#x3e;" horiz-adv-x="614" d="M86 874l375 -442l-295 -432h-55l182 430l-252 444h45z" />
<glyph unicode="?" horiz-adv-x="829" d="M242 197q49 0 81.5 -33t32.5 -82t-32.5 -82t-81.5 -33t-82 33t-33 82t33 82t82 33zM102 1077q16 27 52 27q41 0 70.5 -30t29.5 -87q0 -14 -4 -37.5t-30.5 -52.5t-65.5 -29q-43 0 -80 39q-18 18 -26.5 46t-8.5 67q0 117 72 209q84 109 219 108q180 0 274 -149 q70 -111 70 -246q0 -98 -54.5 -178t-172 -149.5t-156.5 -110.5q-51 -55 -51 -137q0 -31 10 -86h-35q0 156 20.5 209t116.5 131q68 53 96.5 126.5t28.5 194.5q0 176 -20 252q-33 123 -133 123q-117 0 -183 -90q-49 -68 -49 -133l2 -15q2 -6 8 -2z" />
<glyph unicode="@" horiz-adv-x="1802" d="M1575 272q-117 -156 -260 -215q-90 -37 -215 -37q-80 0 -120 46.5t-40 138.5q-57 -100 -110.5 -142.5t-124.5 -42.5q-109 0 -164.5 61.5t-55.5 182.5q0 90 33 207q43 152 162 283q145 160 313 159q88 0 101 -71q4 -25 4 -115l45 164h184l-178 -617q-2 -6 -18.5 -70.5 t-16.5 -88.5q0 -29 11.5 -44.5t37.5 -15.5q72 0 133 29q94 43 166 140.5t104.5 210t32.5 235.5q0 254 -135 432q-145 193 -391 192q-360 0 -618 -244.5t-258 -598.5q0 -367 200 -605q209 -248 557 -247q274 0 477 158.5t291 418.5h29q-88 -270 -299 -437t-498 -167 q-367 0 -615.5 256t-248.5 627q0 356 309 616q299 250 678 250q268 0 453 -201q176 -193 176 -454q0 -106 -31.5 -204t-99.5 -190zM1020 473q57 201 57 297q0 121 -84 121q-96 0 -149 -86t-125 -336q-45 -160 -51 -184q-25 -96 -25 -146q0 -49 19.5 -73.5t68.5 -24.5 q66 0 141 104q87 119 148 328z" />
<glyph unicode="A" horiz-adv-x="1411" d="M815 485l-188 521l-189 -521h377zM825 461h-397l-63 -180q-25 -68 -25 -117q0 -76 57.5 -108.5t161.5 -32.5v-23h-518v23q141 0 219 106q43 59 111 246l346 962h43l440 -1200q31 -84 61.5 -99t184.5 -15v-23h-754v23q154 0 211.5 11t57.5 46l-5 20z" />
<glyph unicode="B" horiz-adv-x="1458" d="M588 715h190q150 0 221 55q86 66 86 219q0 172 -69.5 241.5t-235.5 69.5h-98q-43 0 -63.5 -6t-25.5 -26.5t-5 -79.5v-473zM995 0h-954v23q215 0 258 16q20 8 28.5 23.5t8.5 74.5v1051q0 57 -8 74q-4 8 -27 16q-59 23 -260 22v21h838q221 0 352 -119q104 -94 104 -194 q0 -123 -63 -185q-84 -84 -318 -118q246 -31 361 -142q94 -90 94 -231q0 -115 -106 -215q-124 -117 -308 -117zM829 694h-241v-557q0 -61 7 -77.5t30.5 -25.5t61.5 -11.5t177 -2.5q145 0 217 89q66 80 66 223q0 170 -76 262q-82 100 -242 100z" />
<glyph unicode="C" horiz-adv-x="1120" d="M1106 549q0 -297 -113.5 -432t-328.5 -135q-244 0 -412 147q-201 176 -201 506q0 322 203 526q174 176 373 176q96 0 168 -34q92 -45 168 -148l104 193h8v-594l-18 10q0 264 -146 424q-121 133 -254 133q-178 0 -255.5 -165t-77.5 -497q0 -326 84 -492.5t256 -166.5 q195 0 299 115q125 135 124 434h19z" />
<glyph unicode="D" horiz-adv-x="1488" d="M848 0h-797v23q92 0 157.5 6t90.5 15t29 17q8 14 8 76v1049q0 57 -8 74q-4 8 -27 16q-66 25 -250 24v21h799q231 0 418 -170q215 -195 215 -498q0 -299 -191 -481q-180 -172 -444 -172zM848 23q195 0 284 157.5t89 472.5q0 299 -91 467q-96 180 -282 180q-98 0 -150.5 -3 t-74 -11t-28.5 -23.5t-7 -76.5v-1049q0 -59 7 -77.5t27.5 -26.5t88 -9t137.5 -1z" />
<glyph unicode="E" horiz-adv-x="1421" d="M569 686v-547q0 -57 6.5 -71.5t39 -25.5t75.5 -13t154 -2q233 0 353 138t151 443h24v-608h-1331v23q182 0 242 22q20 8 27 21.5t7 70.5v1049q0 59 -8 74q-4 8 -26.5 16t-92 16t-149.5 8v21h1264v-512h-25q0 158 -80 301q-106 190 -301 190q-78 0 -156.5 -1t-140.5 -19 q-18 -8 -25.5 -21.5t-7.5 -72.5v-477q213 0 265 43q78 66 108 352h23v-809h-23q-31 281 -106 346q-54 45 -267 45z" />
<glyph unicode="F" horiz-adv-x="1275" d="M319 137v1049q0 59 -8 74q-4 8 -27.5 16t-92 16t-150.5 8v21h1266v-512h-25q0 158 -80 301q-106 190 -301 190q-133 0 -187.5 -4t-109.5 -20l-18 -8q-14 -14 -15 -82v-477q219 0 273 43q86 70 110 352h23v-809h-23q0 276 -94 346q-59 45 -289 45v-549q0 -59 9 -76 q4 -8 28.5 -17t95 -15t191.5 -6v-23h-854v23q88 0 152.5 6t88 15t30.5 22.5t7 70.5z" />
<glyph unicode="G" horiz-adv-x="1380" d="M1167 0h-18q0 80 -25.5 120t-64.5 40q-70 0 -117 -41q-23 -20 -43 -41q-78 -59 -128 -77.5t-140 -18.5q-231 0 -389 145q-190 174 -191 504q0 319 209 528q178 178 367 178q127 0 204 -37q98 -47 195 -178l115 215v-577h-21q-43 272 -174 422q-123 139 -289 139 q-158 0 -249 -174t-91 -492q0 -315 85 -485t235 -170q139 0 217 73.5t78 215.5v248q0 55 -6 69.5t-26.5 22.5t-83 14t-107.5 6v21h704v-21q-45 0 -112.5 -8t-91 -12t-29.5 -15q-12 -20 -13 -77v-537z" />
<glyph unicode="H" horiz-adv-x="1665" d="M1155 137v529h-584v-529q0 -59 9 -76q4 -8 27.5 -17t87 -15t149.5 -6v-23h-803v23q88 0 152.5 6t88 15t30.5 22.5t7 70.5v1049q0 59 -8 74q-4 8 -27.5 16t-92 16t-150.5 8v21h805v-21q-174 0 -240 -24q-20 -8 -24 -16q-10 -18 -11 -74v-486h584v486q0 57 -10 74 q-4 8 -26.5 16t-92.5 16t-147 8v21h804v-21q-92 0 -151 -6t-92 -18l-19 -8q-14 -14 -14 -82v-1049q0 -59 8 -76q4 -8 25 -16q59 -23 243 -22v-23h-802v23q180 0 239 22q23 8 27 16q8 15 8 76z" />
<glyph unicode="I" horiz-adv-x="849" d="M571 1190v-1053q0 -59 9 -76q4 -8 24 -16q59 -23 244 -22v-23h-807v23q88 0 152.5 6t88 15t30.5 22.5t7 70.5v1053q0 57 -8 72q-4 8 -26 16q-59 23 -244 22v21h809v-21q-88 0 -152.5 -6t-91.5 -16l-20 -8q-15 -12 -15 -80z" />
<glyph unicode="J" horiz-adv-x="956" d="M315 0q143 0 183 113q25 70 24 301v772q0 57 -10 74q-4 8 -27.5 16t-93 16t-160.5 8v21h811v-21q-170 0 -235 -24l-19 -8q-14 -14 -14 -82v-756q0 -199 -125 -323.5t-334 -124.5q-88 0 -159.5 54t-94 115.5t-22.5 110.5q0 133 98 189q35 20 76 20q59 0 102 -43t43 -113 q0 -63 -48 -103t-107 -40q-27 0 -49.5 9t-42.5 26q-4 -20 -5 -31q0 -70 64.5 -123t144.5 -53z" />
<glyph unicode="K" horiz-adv-x="1511" d="M571 573l467 465q96 96 97 160q0 51 -57.5 76.5t-168.5 25.5v21h578v-21q-98 0 -187 -55q-55 -35 -251 -237l-136 -138l392 -735q43 -80 78.5 -97.5t185.5 -17.5v-20h-711v20q127 0 167 6.5t40 30.5q0 8 -2 15l-19 37l-303 587l-170 -166v-393q0 -59 9 -76q4 -8 27.5 -17 t85 -15t136.5 -6v-23h-788v23q84 0 149.5 8t85 15t29.5 11q14 12 14 80v1053q0 57 -8 72q-4 8 -26 16q-59 23 -244 22v21h807v-21q-182 0 -242 -22l-20 -8q-14 -12 -15 -80v-617z" />
<glyph unicode="L" horiz-adv-x="1388" d="M846 27q248 0 379 150.5t131 455.5h24v-633h-1339v23q90 0 153.5 6t87 15t30.5 22.5t7 70.5v1049q0 59 -8 74q-4 8 -27.5 16t-92 16t-150.5 8v21h842v-21q-115 0 -179.5 -6t-91 -16t-30.5 -18q-10 -18 -11 -74v-1047q0 -59 9 -76q4 -8 24 -16q70 -20 242 -20z" />
<glyph unicode="M" horiz-adv-x="1755" d="M575 1321l347 -954l286 954h568v-21q-186 0 -246 -24q-20 -8 -25 -16q-10 -18 -10 -74v-1049q0 -61 8 -76q4 -8 30 -17t89.5 -15t153.5 -6v-23h-789v23q74 0 136.5 6t86 15t27.5 17q8 16 8 76l-2 1114q0 35 -8 35t-18 -31l-375 -1255h-45l-443 1257l-16 31q-6 0 -6 -35 v-858q0 -227 60.5 -299.5t228.5 -72.5v-23h-580v23q143 0 202.5 73.5t59.5 249.5v633q0 180 -55 250.5t-207 70.5v23z" />
<glyph unicode="N" horiz-adv-x="1423" d="M1212 406v569q0 186 -63.5 255.5t-228.5 69.5v21h579v-21q-145 0 -202.5 -69.5t-57.5 -255.5v-983h-47l-817 1081l-23 27q-6 0 -6 -37v-668q0 -225 61.5 -298.5t229.5 -73.5v-23h-596v23q160 0 219 65.5t59 257.5v696q0 115 -61 181q-74 78 -217 77v21h422l711 -922 q27 -35 32 -34q6 0 6 41z" />
<glyph unicode="O" horiz-adv-x="1298" d="M1288 662q0 -301 -203 -500q-184 -180 -415 -180q-236 0 -416 172q-203 195 -203 508q0 301 203 497q184 178 416 178q236 0 415 -170q203 -192 203 -505zM1018 662q0 324 -87 491.5t-261 167.5q-172 0 -259 -168t-87 -491q0 -319 87 -490.5t259 -171.5q170 0 259 171.5 t89 490.5z" />
<glyph unicode="P" horiz-adv-x="1323" d="M596 616h207q170 0 237 89q57 76 58 241q0 174 -76 264t-234 90h-98q-43 0 -63.5 -6t-25.5 -25.5t-5 -78.5v-574zM596 598v-461q0 -59 8 -76q4 -8 28.5 -17t96.5 -15t197 -6v-23h-885v23q104 0 173 6t93.5 15t28.5 17q8 16 8 76v1053q0 55 -8 72q-4 8 -25 16 q-63 23 -270 22v21h795q244 0 385 -113q133 -106 133 -278q0 -117 -103 -213q-127 -119 -344 -119h-311z" />
<glyph unicode="Q" horiz-adv-x="1325" d="M731 -10l-61 -8q-236 0 -416 172q-203 193 -203 505q0 299 203 498q184 180 416 180q238 0 415 -170q203 -193 203 -508q0 -217 -104 -374q-92 -137 -252 -219q20 -70 43.5 -144t40.5 -98q66 -92 137 -92q59 0 101 69.5t42 188.5q0 41 -6 88h17q4 -20 6 -47t2 -49 q0 -152 -74 -251.5t-203 -99.5q-49 0 -108 19q-92 31 -145.5 120t-53.5 220zM901 129q61 82 89 207t28 323q0 324 -87 493t-261 169q-182 0 -263 -166t-81 -498q0 -246 54 -404.5t169 -221.5q-27 23 -39 52.5t-12 59.5q0 55 31.5 103.5t58 56.5t47 13.5t43.5 5.5 q57 0 104 -33q35 -25 70 -70q12 -14 24.5 -38.5t24.5 -51.5zM731 8l14 82q6 23 8.5 43.5t2.5 42.5q0 57 -30 86t-89 29q-51 0 -86 -45t-35 -103q0 -45 26.5 -82.5t80.5 -56.5q29 -4 43 -4q25 0 42 4t23 4z" />
<glyph unicode="R" horiz-adv-x="1415" d="M588 711h190q150 0 221 55q86 66 86 221q0 172 -70.5 242.5t-234.5 70.5h-98q-43 0 -63.5 -6t-25.5 -25.5t-5 -78.5v-479zM1417 295v-68q0 -121 -22 -168q-37 -78 -146 -77q-141 0 -186 106q-37 86 -37 328v43q0 20 2 43q0 109 -51 146.5t-148 37.5h-241v-549 q0 -61 7 -77.5t30.5 -25.5t96.5 -11.5t152 -2.5v-20h-833v23q215 0 258 16q20 8 28.5 23.5t8.5 74.5v1053q0 57 -8 72q-4 8 -27 16q-59 23 -260 22v21h838q221 0 352 -119q104 -94 104 -194q0 -119 -82 -195q-98 -92 -311 -117q217 -43 287 -243q35 -100 35 -303 q0 -59 10 -87q10 -27 49 -26q43 0 59.5 68.5t16.5 189.5h18z" />
<glyph unicode="S" horiz-adv-x="1077" d="M754 1221q119 104 135 116v-446l-19 6q-29 180 -149.5 302t-274.5 122q-106 0 -184 -49q-96 -59 -96 -174q0 -111 104 -180q88 -59 283 -105q252 -61 330 -117q127 -92 127 -307q0 -203 -131 -313q-111 -94 -269 -94q-121 0 -216 38.5t-165 129.5q-123 -162 -129 -168 v565l19 2q39 -176 88 -283q41 -90 96 -149q109 -117 315 -117q96 0 177 63q92 74 92 185q0 135 -125 213q-86 53 -300 111.5t-298 119.5q-123 92 -123 269q0 158 111.5 267t265.5 109q131 0 215 -39q27 -11 121 -77z" />
<glyph unicode="T" horiz-adv-x="1249" d="M1253 1321v-584h-28q-47 334 -150 459q-84 104 -248 104q-41 0 -45 -4q-8 -6 -8 -53v-1106q0 -59 8 -76q4 -8 29 -17t94.5 -15t188.5 -6v-23h-891v23q117 0 186.5 6t94 15t31.5 22.5t7 70.5v1104q0 53 -12 57q-6 2 -43 2q-160 0 -244 -102q-102 -127 -153 -457h-29v580 h1212z" />
<glyph unicode="U" horiz-adv-x="1441" d="M1235 393q0 -221 -162 -334q-113 -78 -235 -77q-231 0 -387 96q-172 106 -172 295v813q0 57 -9 74q-4 8 -24 16q-66 25 -226 24v21h791v-21q-94 0 -152.5 -6t-85 -16t-30.5 -18q-10 -18 -11 -74v-772q0 -205 62 -293q74 -106 266 -107q106 0 207 76q141 106 141 303v535 q0 211 -65.5 291.5t-214.5 80.5v21h549v-21q-154 0 -205 -86q-37 -61 -37 -206v-615z" />
<glyph unicode="V" horiz-adv-x="1388" d="M713 -18l-437 1204q-29 82 -63.5 98t-192.5 16v21h748v-21q-141 0 -193.5 -13t-52.5 -54q0 -16 10 -47l320 -864l219 645q35 109 35 172q0 162 -211 161v21h528v-21q-176 0 -256 -159q-25 -51 -73 -191l-326 -968h-55z" />
<glyph unicode="W" horiz-adv-x="1980" d="M1032 989l-258 -997h-67l-451 1194q-31 84 -62.5 99t-173.5 15v21h701v-21q-125 0 -173 -13t-48 -52q0 -20 12 -49l317 -858l187 712l-43 146q-25 82 -59.5 98t-178.5 16v21h699v-21q-125 0 -173.5 -13t-48.5 -56q0 -23 9 -45l264 -860l227 637q35 100 35 163 q0 174 -246 174v21h527v-21q-145 0 -216 -149q-10 -23 -75 -201l-336 -958h-66z" />
<glyph unicode="X" horiz-adv-x="1497" d="M668 610l-349 576q-45 74 -96 93t-203 19v23h805v-23q-246 0 -245 -63q0 -18 18 -49l229 -377l187 252q49 68 49 125q0 113 -176 112v23h549v-23q-125 0 -215 -57q-55 -35 -226 -252l-153 -209l393 -643q45 -76 94 -95t205 -19v-23h-805v23q246 0 246 63q0 20 -19 51 l-270 443l-205 -281q-45 -57 -45 -117q0 -70 60.5 -114.5t181.5 -44.5v-23h-658v23q106 0 216 80.5t227 234.5z" />
<glyph unicode="Y" horiz-adv-x="1484" d="M682 559l-369 627q-43 76 -90 95t-203 19v21h807v-21q-127 0 -185 -16t-58 -57q0 -23 18 -53l328 -549l223 376q45 80 45 142q0 158 -225 157v21h549v-21q-133 0 -219 -104q-88 -145 -138 -225l-229 -387v-447q0 -59 8 -76q4 -8 28.5 -17t94.5 -15t186 -6v-23h-888v23 q117 0 186.5 6t94 15t28.5 17q8 16 8 76v422z" />
<glyph unicode="Z" horiz-adv-x="1144" d="M1165 0h-1145l728 1116q98 152 98 166q0 18 -68 18q-289 0 -372 -51q-150 -92 -189 -440h-29v512h986l-728 -1116q-98 -150 -98 -162q0 -16 64 -16q281 0 366 16q162 31 240 147q88 131 119 428h28v-618z" />
<glyph unicode="[" horiz-adv-x="665" d="M41 0v1321h471v-21q-88 0 -152.5 -6t-91.5 -16l-20 -8q-14 -12 -15 -80v-1053q0 -57 6.5 -71.5t26.5 -22.5q59 -23 246 -23v-20h-471z" />
<glyph unicode="\" horiz-adv-x="622" d="M82 1321l514 -1321h-41l-514 1321h41z" />
<glyph unicode="]" horiz-adv-x="722" d="M512 0h-471v20q186 0 246 23q20 8 24 16q8 16 8 78v1053q0 57 -8 72q-4 8 -26 16q-59 23 -244 22v21h471v-1321z" />
<glyph unicode="^" horiz-adv-x="536" d="M41 1161l201 160l192 -133l4 -98l-213 133l-186 -133z" />
<glyph unicode="_" horiz-adv-x="1490" d="M-2 -356h1298v-72h-1298v72z" />
<glyph unicode="`" horiz-adv-x="286" d="M285 1090l-244 231h201l86 -231h-43z" />
<glyph unicode="a" horiz-adv-x="948" d="M569 225v273q-25 -33 -72.5 -40t-93.5 -14q-59 -14 -94 -65q-41 -61 -41 -172q0 -119 23.5 -161t75.5 -42q78 0 140 64.5t62 156.5zM575 594v119q0 82 -26.5 110.5t-114.5 28.5q-72 0 -125 -26.5t-69 -71.5q8 2 20 2q39 0 63.5 -31t24.5 -70q0 -45 -30.5 -73.5 t-71.5 -28.5q-27 0 -47 14q-59 39 -60 99q0 29 13 65q29 80 143 117q82 27 166 26q152 0 229 -57q70 -51 70 -129v-452q0 -123 6 -152q14 -70 74 -70q53 0 71.5 55.5t18.5 159.5q0 29 -1 57.5t-1 59.5v19h22v-91q0 -43 2 -81q0 -119 -28 -160q-37 -51 -150 -51 q-88 0 -131 30q-51 37 -68 125q-43 -100 -129 -135q-51 -20 -137 -20t-149 41q-88 55 -88 167q0 111 86 187q86 74 208.5 84t165.5 32.5t43 100.5z" />
<glyph unicode="b" horiz-adv-x="968" d="M367 311q0 -193 71 -264q45 -45 131 -45q84 0 121 118t37 310q0 229 -41 325.5t-117 96.5q-82 0 -137 -96q-66 -113 -65 -312v-133zM174 -18v1212q0 41 -12 57.5t-25 20.5q-35 10 -157 10v21l387 34v-723q0 94 60 177t142 83q184 0 289 -165q82 -131 82 -277 q0 -186 -105.5 -318t-242.5 -132q-125 0 -185.5 31.5t-127.5 127.5l-86 -159h-19z" />
<glyph unicode="c" horiz-adv-x="811" d="M649 721q-8 66 -57 99.5t-123 33.5q-115 0 -160 -102.5t-45 -323.5q0 -205 57.5 -310.5t153.5 -105.5q115 0 195 76q100 96 100 283h18q0 -180 -94 -284.5t-258 -104.5q-133 0 -248 106q-137 127 -137 324q0 211 139 346q121 117 252 116q88 0 164 -30q115 -47 142 -146 q10 -37 10 -63q0 -66 -62 -100q-23 -14 -53 -15q-37 0 -66.5 27.5t-29.5 75.5q0 43 27.5 70.5t74.5 27.5z" />
<glyph unicode="d" horiz-adv-x="1007" d="M625 285q0 -100 -50 -189q-63 -115 -176 -114q-147 0 -243 112q-104 123 -105 338q0 147 96 283q113 160 285 159q92 0 146 -102q37 -72 47 -158v580q0 41 -12.5 57.5t-34.5 20.5q-51 10 -230 10v21l469 34v-1216q0 -41 6 -53q4 -6 19 -13q43 -14 168 -14v-21l-385 -38 v303zM614 434q0 205 -47 311.5t-129 106.5q-98 0 -136 -91t-38 -331q0 -217 23 -303q33 -125 135 -125q70 0 125 104q67 125 67 328z" />
<glyph unicode="e" horiz-adv-x="817" d="M262 422q0 -219 52.5 -317.5t158.5 -98.5q113 0 199 76q104 92 104 250h19q0 -154 -98.5 -252t-262.5 -98q-137 0 -250 104q-133 123 -133 322q0 215 131 350q115 117 258 116q133 0 222 -77q129 -115 129 -375h-529zM618 449q0 197 -35.5 300t-115.5 103 q-113 0 -159 -98.5t-46 -304.5h356z" />
<glyph unicode="f" horiz-adv-x="722" d="M403 815v-715q0 -43 7 -53q4 -6 20 -12q43 -14 170 -15v-20h-580v20q123 0 166 15l15 6q12 10 12 59v715h-193v37h193v121q0 137 95 250.5t220 113.5q80 0 131.5 -25.5t66.5 -63.5t15 -70q0 -57 -55 -93q-23 -14 -51 -14q-39 0 -68.5 27.5t-29.5 72.5q0 82 79 97 q-14 29 -28.5 41t-44.5 12q-82 0 -111 -46t-29 -171v-252h191v-37h-191z" />
<glyph unicode="g" horiz-adv-x="892" d="M240 348q-66 33 -103 86t-37 131q0 131 119 223q109 84 240 84q39 0 82 -10t80 -26v49q0 96 33.5 125.5t103.5 29.5q31 0 53.5 -20.5t22.5 -52.5q0 -72 -68 -72q-70 0 -70 66q0 12 4.5 22t10.5 21q-41 -6 -54.5 -36t-13.5 -81q2 -43 2 -64q80 -39 126 -102.5t46 -147.5 q0 -125 -119 -204q-106 -72 -239 -72q-94 0 -178 33q-72 0 -117 -23q-59 -31 -60 -100q0 -31 52 -47q49 -18 192 -19h119q182 0 276 -49q119 -61 119 -205q0 -152 -107.5 -233.5t-281.5 -81.5q-207 0 -330 68.5t-123 156.5q0 57 68 97q47 27 148 55q-90 33 -134 69 q-59 51 -59 134q0 86 51.5 141t145.5 55zM635 584q0 129 -35 192q-41 76 -141 76q-92 0 -134 -71.5t-42 -196.5q0 -143 35.5 -205t140.5 -62q94 0 135 65t41 202zM485 -410q139 0 216 57.5t77 139.5q0 98 -62.5 133t-230.5 35q-193 0 -264 -43q-61 -37 -61 -127 q0 -86 49 -129q75 -66 276 -66z" />
<glyph unicode="h" horiz-adv-x="1138" d="M436 510v-410q0 -41 6 -53q4 -6 19.5 -12t55.5 -10.5t71 -4.5v-20h-547v20q59 0 107.5 4.5t82.5 16.5q12 10 13 59v1071q0 27 -1 45.5t-10 28.5q-14 20 -26 25q-37 10 -164 10v20l393 35v-723q12 82 60 158q59 94 141 102q16 0 35.5 2.5t27.5 2.5q143 0 215 -78 q57 -63 58 -156v-543q0 -41 6 -53q4 -6 20.5 -12t59.5 -10.5t86 -4.5v-20h-529v20q33 0 76 4.5t76 16.5q12 10 12 59v553q0 88 -18 131q-29 68 -109 68q-86 0 -147 -113q-52 -94 -70 -229z" />
<glyph unicode="i" horiz-adv-x="655" d="M436 872v-772q0 -41 6 -53q4 -6 19 -12q43 -14 178 -15v-20h-598v20q59 0 107.5 4.5t82.5 16.5q12 10 13 59v635q0 39 -8 49q-14 20 -27 25q-37 10 -168 10v21zM328 1337q49 0 81.5 -32.5t32.5 -81.5t-32.5 -82t-81.5 -33t-82 33t-33 82t33 81.5t82 32.5z" />
<glyph unicode="j" horiz-adv-x="667" d="M279 -193v914q0 20 -1.5 35.5t-9.5 25.5q-14 20 -28 25q-37 10 -170 10v21l399 34v-946q0 -135 -104.5 -243.5t-231.5 -108.5q-78 0 -131 25.5t-68.5 62.5t-15.5 70q0 61 59 96q23 14 54 14q37 0 66.5 -27.5t29.5 -74.5q0 -43 -27.5 -70.5t-74.5 -27.5q20 -33 34.5 -39 t59.5 -6q76 0 118 46.5t42 163.5zM360 1337q49 0 82 -32.5t33 -81.5t-32.5 -82t-82.5 -33q-49 0 -81.5 33t-32.5 82t32.5 81.5t81.5 32.5z" />
<glyph unicode="k" horiz-adv-x="1077" d="M426 369v-269q0 -41 6 -53q4 -6 19.5 -12t54.5 -10.5t63 -4.5v-20h-528v20q123 0 166 15l14 6q12 10 12 59v1094q0 41 -12 58.5t-22 19.5q-33 10 -156 10v21l383 34v-929l258 256q61 59 61 106q0 39 -43 60.5t-131 21.5v22h469v-22q-78 0 -122 -22.5t-119 -92.5 l-127 -125l262 -520q23 -45 56.5 -58.5t111.5 -13.5v-20h-500v20q68 0 104.5 3.5t36.5 29.5q0 12 -16 45l-192 381z" />
<glyph unicode="l" horiz-adv-x="645" d="M436 100q0 -41 6 -53q4 -6 19 -12q43 -14 178 -15v-20h-598v20q59 0 107.5 4.5t82.5 16.5q12 10 13 59v1094q0 41 -12.5 57.5t-24.5 20.5q-37 10 -164 10v21l393 34v-1237z" />
<glyph unicode="m" horiz-adv-x="1556" d="M913 625q16 94 48 149q51 88 141 98q14 0 31.5 2.5t25.5 2.5q127 0 203 -78q63 -66 63 -156v-543q0 -39 7 -51q4 -8 19 -14t55 -10.5t67 -4.5v-20h-488v20q49 0 76 3.5t58 19.5q12 10 12 57v518q0 96 -17 150q-27 84 -96 84q-72 0 -119 -68q-53 -76 -81 -274v-410 q0 -41 6 -53q4 -6 18 -11t52 -10.5t71 -5.5v-20h-487v20q78 0 120 15l15 6q12 10 12 59v518q0 98 -16 150q-27 84 -99 84q-92 0 -143 -117q-35 -82 -55 -233v-402q0 -41 6 -53q4 -6 19.5 -12t55 -10.5t66.5 -4.5v-20h-518v20q43 0 87 4.5t79 16.5q12 10 12 59v621 q0 18 -1 36.5t-9 28.5q-14 20 -25 25q-31 10 -141 10v21l369 35v-265q14 98 43 156q47 94 139 104q20 2 35.5 3.5t23.5 1.5q131 0 199 -74q61 -67 61 -178z" />
<glyph unicode="n" horiz-adv-x="1099" d="M414 502v-402q0 -41 6 -53q4 -6 19.5 -12t55.5 -10.5t70 -4.5v-20h-524v20q45 0 89 4.5t79 16.5q12 10 12 59v621q0 18 -1 36.5t-9 28.5l-12 21q-20 14 -156 14v21l371 35v-265q12 88 53 156q57 94 120.5 101.5t82.5 7.5q129 0 204 -78q63 -66 64 -156v-543q0 -41 6 -53 q4 -6 20.5 -12t59.5 -10.5t82 -4.5v-20h-524v20q33 0 75.5 4.5t75.5 16.5q12 10 12 59v518q0 98 -16 150q-27 84 -98 84q-94 0 -154 -117q-45 -88 -63 -233z" />
<glyph unicode="o" horiz-adv-x="917" d="M887 430q0 -199 -137 -330q-125 -119 -281 -118q-160 0 -279 110q-139 129 -139 338q0 199 137 328q125 117 281 116q158 0 279 -110q139 -127 139 -334zM674 430q0 227 -39 320q-45 106 -166 106q-111 0 -158 -102.5t-47 -323.5q0 -225 42 -327.5t163 -102.5 q111 0 158 104.5t47 325.5z" />
<glyph unicode="p" horiz-adv-x="995" d="M395 582q12 106 58 184q63 109 168 108q147 0 243 -112q104 -123 105 -338q0 -147 -97 -283q-113 -160 -284 -159q-90 0 -144 96q-37 68 -49 155v-561q0 -41 6 -53q4 -6 19 -12q43 -14 178 -15v-20h-598v20q59 0 107.5 4.5t82.5 16.5q12 10 13 59v1059q0 41 -12.5 57.5 t-24.5 20.5q-37 10 -164 10v21l393 34v-292zM406 422q0 -205 47 -311.5t129 -106.5q98 0 136 91t38 331q0 217 -23 303q-33 125 -135 125q-70 0 -125 -104q-67 -125 -67 -328z" />
<glyph unicode="q" horiz-adv-x="974" d="M817 -328q0 -41 6 -53q4 -6 19 -12q43 -14 178 -15v-20h-598v20q59 0 107.5 4.5t82.5 16.5q12 10 13 65v564q0 -94 -60.5 -177t-142.5 -83q-184 0 -289 165q-82 131 -82 277q0 186 105.5 318t242.5 132q125 0 185.5 -31.5t128.5 -127.5l86 159h18v-1202zM625 545 q0 193 -72 264q-45 45 -131 45q-84 0 -121 -118t-37 -310q0 -229 41 -325.5t117 -96.5q82 0 137 96q66 113 66 312v133z" />
<glyph unicode="r" horiz-adv-x="802" d="M244 735q0 41 -8 51q-14 20 -27 25q-37 10 -168 10v21l395 30v-258q8 84 58 158q68 102 170 102q39 0 84 -25.5t60 -64.5t15 -69q0 -82 -67 -113q-16 -8 -43 -8q-41 0 -70 28.5t-29 86.5q0 37 28 73.5t65 28.5q-12 41 -74 41q-59 0 -119 -86q-78 -111 -78 -285v-381 q0 -41 6 -53q4 -6 19 -12q43 -14 178 -15v-20h-598v20q59 0 107.5 4.5t82.5 16.5q12 10 13 59v635z" />
<glyph unicode="s" horiz-adv-x="714" d="M537 811q80 59 84 63v-307l-19 4q-29 123 -102 201q-80 84 -176 84q-74 0 -121 -29q-63 -39 -64 -129q0 -74 70 -114q49 -29 196.5 -64t206.5 -82q84 -66 84 -209q0 -133 -90 -196q-72 -51 -180 -51q-90 0 -129 12q-57 18 -125 88q-82 -96 -86 -100v362h14 q35 -127 58 -176q31 -68 65 -100q47 -45 89 -56.5t126 -11.5q63 0 105 33q49 39 49 110q0 92 -66 138q-51 35 -181 61.5t-202 85.5q-86 72 -86 190q0 106 73 181t177 75q80 0 139 -26q79 -35 91 -37z" />
<glyph unicode="t" horiz-adv-x="632" d="M627 436v-94q0 -47 2 -90q0 -143 -33 -197q-45 -74 -174 -73q-123 0 -180.5 59t-57.5 170v582h-164v20q166 41 250 195q68 123 68 276h37v-432h237v-59h-237v-557q0 -111 8 -144q20 -78 92 -78q84 0 111 90q18 61 18 234v98h23z" />
<glyph unicode="u" horiz-adv-x="1067" d="M692 745q0 47 -11 62.5t-37 19.5t-167 4v21l408 22v-694q0 -27 1 -53.5t9 -38.5l12 -20q20 -14 156 -15v-20l-371 -33v260q-12 -84 -61 -156q-63 -92 -156 -102q-12 -2 -24 -2h-25q-121 0 -188 76q-57 63 -58 153v535q0 37 -9 50t-27.5 15t-96.5 2h-47v21l373 22v-673 q0 -104 25.5 -141t74.5 -37q92 0 155.5 110.5t63.5 239.5v372z" />
<glyph unicode="v" horiz-adv-x="880" d="M428 -10l-287 786q-18 47 -22 55q-12 20 -72 21h-47v22h471v-22q-47 0 -95 -1t-48 -26l12 -41l192 -526l140 401q25 72 24 111q0 82 -137 82v22h344v-22q-78 0 -121 -38t-96 -189l-217 -635h-41z" />
<glyph unicode="w" horiz-adv-x="1335" d="M702 639l-192 -649h-41l-301 786q-20 53 -45 64.5t-123 11.5v22h489v-22q-47 0 -95 -1t-48 -26q0 -12 12 -41l201 -540l129 438l-29 94q-16 53 -29.5 64.5t-64.5 11.5h-47v22h453v-22q-47 0 -93.5 -1t-46.5 -26q0 -12 11 -43l157 -524l138 401q25 72 24 111q0 82 -137 82 v22h344v-22q-78 0 -121 -38t-96 -189l-217 -635h-41z" />
<glyph unicode="x" horiz-adv-x="972" d="M426 387l-240 389q-29 47 -59.5 61.5t-126.5 14.5v22h530v-22q-45 0 -95 -2t-50 -27q0 -14 21 -47l137 -225l102 143q37 59 37 94q0 63 -113 64v22h365v-22q-129 0 -211 -92q-20 -23 -82 -111l-84 -119l268 -434q33 -51 47 -59q29 -16 125 -17v-20h-530v20q158 0 158 33 q0 18 -17 43l-170 271l-131 -183q-35 -51 -35 -84q0 -80 162 -80v-20h-434v20q74 0 155 51.5t146 141.5z" />
<glyph unicode="y" horiz-adv-x="921" d="M446 -197q-43 -125 -79 -174q-43 -57 -111 -57q-86 0 -127 17.5t-52 59.5t-11 66q0 61 57 92q23 12 47 13q39 0 68.5 -30t29.5 -79q0 -88 -82 -98q14 -14 29.5 -16.5t32.5 -2.5q55 0 90 42t74 155l65 184l-295 801q-18 47 -22 55q-12 20 -72 21h-47v22h471v-22 q-47 0 -95 -1t-48 -26l12 -41l194 -526l138 401q25 72 24 111q0 82 -137 82v22h344v-22q-78 0 -121 -38t-96 -189z" />
<glyph unicode="z" horiz-adv-x="851" d="M817 0h-776l506 731l71 111q0 10 -49 10h-82q-145 0 -202 -49q-84 -72 -121 -301h-14v372h702l-512 -741q-68 -98 -68 -104q0 -8 43 -9h205q94 0 160 78q90 104 119 336h18v-434z" />
<glyph unicode="{" horiz-adv-x="557" d="M41 444v21q45 12 68 39q31 39 30 119v483q0 135 99 190q74 41 202 41v-16q-78 0 -97 -50t-19 -196v-434q0 -76 -80 -137q-63 -49 -103 -49q25 0 70 -27q113 -68 113 -160v-434q0 -119 6 -153q16 -92 110 -93v-16q-172 0 -241 68q-59 57 -60 163v484q0 80 -30 119 q-23 26 -68 38z" />
<glyph unicode="|" horiz-adv-x="354" d="M78 1321h57v-1749h-57v1749z" />
<glyph unicode="}" horiz-adv-x="557" d="M440 444q-45 -12 -67 -38q-31 -39 -31 -119v-484q0 -135 -98 -190q-74 -41 -203 -41v16q78 0 100 58q16 43 17 188v434q0 76 80 138q63 49 102 49q-25 0 -70 26q-113 68 -112 160v434q0 119 -6 154q-16 92 -111 92v16q172 0 242 -67q59 -57 59 -164v-483q0 -80 31 -119 q23 -27 67 -39v-21z" />
<glyph unicode="~" horiz-adv-x="886" d="M41 1116q88 125 135 165t98 40t122 -30.5t116 -49.5q10 -4 20 -6t21 -2q37 0 76 43q20 23 41 47l22 -10q-92 -129 -133 -166t-94 -37q-33 0 -100 31q-94 43 -140 57q-23 6 -39 6q-39 0 -67 -30q-35 -45 -53 -68z" />
<glyph unicode="&#xa1;" horiz-adv-x="452" d="M156 702q-49 0 -82 33t-33 82t32.5 82t82.5 33q49 0 81.5 -33t32.5 -82t-32.5 -82t-81.5 -33zM143 600h29q0 -317 70 -569q33 -119 32 -217q0 -82 -34.5 -154t-81.5 -88q-45 16 -81 90t-36 154q0 104 31 215q71 258 71 569z" />
<glyph unicode="&#xa2;" d="M549 838q-43 16 -90 16q-115 0 -160 -102.5t-45 -323.5q0 -158 37 -256zM647 1090h41l-96 -244q51 -20 91 -56t52.5 -82t12.5 -73q0 -66 -62 -100q-23 -14 -53 -15q-37 0 -66.5 27.5t-29.5 75.5q0 43 27.5 70.5t74.5 27.5q-8 66 -57 98l-271 -698q31 -53 69 -81t85 -28 q115 0 194 76q100 96 101 283h18q0 -180 -94 -284.5t-258 -104.5q-35 0 -74 10t-80 31l-98 -254h-41l107 272q-88 55 -140 141q-59 100 -59 230q0 211 139 346q121 117 252 116q37 0 58.5 -3t66.5 -15z" />
<glyph unicode="&#xa3;" horiz-adv-x="1228" d="M627 561q0 -139 -80 -305q51 -10 135 -41q55 -20 125 -20q195 0 194 256h27q0 -227 -59 -342q-66 -127 -207 -127q-82 0 -164 47l-123 88q-55 -55 -88 -76q-66 -41 -143 -41q-88 0 -145.5 42t-57.5 97q0 45 39 86t119 66q43 12 100 12q86 0 172 -27q10 37 10 80 q0 80 -30 129l-45 76h-277v51h250q-59 131 -60 281q0 201 138 328q121 113 264 112q86 0 129 -23.5t106 -103.5q37 -45 59.5 -119.5t22.5 -144.5q0 -51 -11 -86t-36 -57q-39 -33 -82 -33t-72.5 34t-29.5 85q0 57 30.5 94t75.5 37q16 0 34 -6t34 -19q-12 139 -66 219 q-66 98 -186 99q-76 0 -131 -58q-72 -74 -72 -217q0 -125 39 -246q53 -164 56 -176h272v-51h-266zM438 145q-51 35 -90 58q-72 43 -121 43q-37 0 -77.5 -16.5t-58 -40t-17.5 -50.5q0 -29 20.5 -57.5t59.5 -43.5t82 -15q53 0 106 28t96 94z" />
<glyph unicode="&#xa4;" d="M233 688l-94 92l37 37l92 -94q90 74 205 74q121 0 205 -74l92 94l37 -37l-92 -94q72 -88 71 -203q0 -115 -71 -202l92 -95l-37 -36l-92 94q-90 -74 -205 -74q-117 0 -203 74l-94 -94l-37 36l94 95q-74 86 -73 202q-1 121 73 205zM473 750q-129 0 -203 -91 q-63 -78 -63 -176q0 -133 94 -207q76 -59 172 -59q125 0 201 90q66 78 65 176q0 125 -90 201q-78 66 -176 66z" />
<glyph unicode="&#xa5;" horiz-adv-x="1648" d="M956 137q0 -59 9 -76q4 -8 28.5 -17t94 -15t186.5 -6v-23h-889v23q117 0 186.5 6t94 15t28.5 17q8 16 8 76v217h-340v68h340v135h-340v68h302l-330 561q-43 76 -90 95t-203 19v21h807v-21q-127 0 -185.5 -16t-58.5 -57q0 -23 19 -53l327 -549l224 376q45 80 45 142 q0 158 -226 157v21h549v-21q-133 0 -219 -104q-88 -145 -137 -225l-205 -346h313v-68h-338v-135h338v-68h-338v-217z" />
<glyph unicode="&#xa6;" horiz-adv-x="192" d="M68 1321h57v-672h-57v672zM68 244h57v-672h-57v672z" />
<glyph unicode="&#xa7;" horiz-adv-x="1120" d="M473 289q190 -37 281 -74q27 31 39 58.5t12 70.5q0 117 -47 172q-61 72 -239.5 104.5t-270.5 69.5q-16 -20 -29 -41q-20 -37 -20 -86q0 -117 47 -172q59 -71 227 -102zM963 471q0 -100 -48.5 -166.5t-128.5 -105.5q88 -53 125 -127q31 -61 31 -152q0 -172 -120 -260 t-300 -88h-24q-78 0 -140 16q-102 27 -166.5 97.5t-64.5 150.5q0 90 70 117q23 6 43 6q94 0 106 -86q6 -41 -18.5 -73.5t-61.5 -32.5q-10 0 -21.5 4t-21.5 10q20 -106 119 -152q70 -33 176 -32q125 0 206 52t81 150q0 104 -70 168q-72 63 -246 99q-252 49 -350 131t-98 239 q0 100 51 172q43 59 123 101q-90 55 -122 120.5t-32 157.5q0 172 120 260t300 88h25q78 0 139 -16q102 -27 167 -97.5t65 -150.5q0 -90 -70 -117q-23 -6 -43 -6q-94 0 -107 86q-6 41 18.5 74t61.5 33q12 0 22.5 -3t20.5 -12q-20 106 -118 152q-70 33 -177 33 q-125 0 -205.5 -52.5t-80.5 -150.5q0 -104 71 -168q70 -63 244 -98q252 -49 350 -131q99 -82 99 -240z" />
<glyph unicode="&#xa8;" horiz-adv-x="632" d="M143 1321q43 0 74 -30.5t31 -73.5t-31 -74t-74 -31t-73.5 31t-30.5 74t30.5 73.5t73.5 30.5zM502 1321q43 0 73.5 -30.5t30.5 -73.5t-30.5 -74t-73.5 -31t-74 31t-31 74t31 73.5t74 30.5z" />
<glyph unicode="&#xa9;" horiz-adv-x="1566" d="M719 1337q281 0 479.5 -198.5t198.5 -479.5t-199 -479t-479 -198q-281 0 -479.5 198.5t-198.5 478.5q0 281 198.5 479.5t479.5 198.5zM719 1298q-264 0 -451.5 -187t-187.5 -452q0 -264 187.5 -451.5t451.5 -187.5t451.5 187.5t187.5 451.5t-187.5 451.5t-451.5 187.5z M1022 590q0 -180 -69.5 -263t-202.5 -83q-150 0 -252 90q-123 109 -123 309q0 199 125 326q106 109 227 108q57 0 110.5 -25.5t96.5 -86.5l63 116l7 -362l-11 6q0 162 -90 260q-74 80 -158 80q-104 0 -154 -103.5t-50 -302.5q0 -203 52 -304t157 -101q121 0 184 70 q76 82 76 266h12z" />
<glyph unicode="&#xaa;" horiz-adv-x="704" d="M283 985v145q-12 -18 -35 -22t-48.5 -8t-43.5 -35t-19 -90q0 -63 11.5 -86t35.5 -23q39 0 69 34t30 85zM287 1184v63q0 43 -13.5 58.5t-56.5 15.5q-78 0 -94 -51q23 6 38 -11.5t15 -41.5q0 -55 -49 -56q-14 0 -23 8q-31 23 -30 54q0 16 6 34q14 43 61 60.5t90 17.5 q72 0 108 -28.5t36 -71.5v-246q0 -70 5 -94.5t36 -24.5q29 0 35 37t6 76v76h12v-92q0 -63 -16.5 -89t-71.5 -26q-43 0 -64.5 17.5t-29.5 66.5q-23 -55 -62 -74q-23 -10 -67 -10q-43 0 -74 22q-43 31 -43 91q0 61 41 100t102.5 45t82 18.5t20.5 55.5zM39 817h432v-41h-432v41 z" />
<glyph unicode="&#xab;" horiz-adv-x="655" d="M649 874h45l-252 -444l183 -430h-56l-295 432zM416 874h45l-252 -444l182 -430h-55l-295 432z" />
<glyph unicode="&#xac;" d="M119 461h708v-281h-49v232h-659v49z" />
<glyph unicode="&#xad;" horiz-adv-x="673" d="M455 492v-111h-414v111h414z" />
<glyph unicode="&#xae;" horiz-adv-x="1566" d="M719 1337q281 0 479.5 -198.5t198.5 -479.5t-199 -479t-479 -198q-281 0 -479.5 198.5t-198.5 478.5q0 281 198.5 479.5t479.5 198.5zM719 1298q-264 0 -451.5 -187t-187.5 -452q0 -264 187.5 -451.5t451.5 -187.5t451.5 187.5t187.5 451.5t-187.5 451.5t-451.5 187.5z M623 688h120q86 0 134 37q55 43 55 135q0 104 -44 148.5t-145 44.5q-90 0 -102 -4q-10 -4 -14 -15q-4 -14 -4 -51v-295zM1135 434v-41q0 -92 -25 -120.5t-80 -28.5q-86 0 -110 59q-27 57 -27 207q2 35 2 55q0 51 -18 76q-27 35 -103 35h-151v-338q0 -35 6 -49q4 -8 16 -15 q10 -4 156 -8v-14h-514v14h53q86 0 101.5 8.5t19.5 14.5q6 12 6 49v645q0 49 -21 55q-33 14 -159 15v14h516q137 0 217 -74q63 -57 63 -119q0 -74 -51 -120q-61 -57 -192 -70q135 -31 178 -154q23 -63 22 -186q0 -37 7 -53q6 -16 30 -17q29 0 38 41t9 119h11z" />
<glyph unicode="&#xaf;" horiz-adv-x="1290" d="M-2 1669h1298v-72h-1298v72z" />
<glyph unicode="&#xb0;" horiz-adv-x="286" d="M184 1661q59 0 101.5 -42t42.5 -101t-42 -101.5t-102 -42.5q-59 0 -101 42t-42 102q0 59 42 101t101 42zM184 1614q-39 0 -67.5 -29t-28.5 -67q0 -39 28.5 -68t67.5 -29t68 29t29 68t-29 67.5t-68 28.5z" />
<glyph unicode="&#xb1;" d="M864 0h-782v49h367v318h-367v49h367v366h49v-366h366v-49h-366v-318h366v-49z" />
<glyph unicode="&#xb2;" horiz-adv-x="411" d="M358 1006v-31q0 -33 -3 -53.5t-13 -38.5q-29 -45 -76 -45q-59 0 -92 47q-23 31 -33 39q-12 8 -37 8q-12 0 -26.5 -20.5t-14.5 -59.5h-16q0 96 49 145q27 27 81 46.5t77 58.5q20 37 20 86q0 47 -16 85t-31.5 46t-44.5 8q-57 0 -91 -52t-25 -95q8 20 28 20q31 0 41 -35 q6 -23 -8 -43t-37 -20l-16 4q-33 12 -33 70q0 59 40 110t114 51q96 0 141 -63q35 -47 35 -111q0 -49 -25 -76q-27 -29 -100.5 -43t-98.5 -26q-51 -25 -71 -78q10 6 22 6t92 -18q45 -10 72 -10q10 0 37 4t36 18t9 41v27z" />
<glyph unicode="&#xb3;" horiz-adv-x="446" d="M205 1120q43 -8 62.5 19.5t19.5 70.5q0 51 -16.5 84t-63.5 33q-39 0 -65.5 -13.5t-35.5 -45.5q10 6 32 -3.5t18 -37.5q-6 -35 -45 -35q-31 0 -39 27q-14 41 26.5 79.5t114.5 38.5q80 0 128 -38.5t48 -84.5q0 -43 -39 -65.5t-110 -28.5q82 0 125 -31.5t43 -97.5 q0 -74 -82 -119q-63 -35 -125 -34q-63 0 -111.5 37.5t-48.5 87.5q0 27 16.5 41t36.5 14h12l11 -4q20 -12 20 -41q0 -39 -41 -39q-12 0 -18 2q-6 -27 28.5 -57.5t86.5 -30.5q51 0 83 41q27 33 27 84q0 76 -20 108q-20 31 -56 31q-6 0 -20 -3t-31.5 -7t-25.5 -4q-20 0 -23 12 q0 14 27 14q37 -4 51 -4z" />
<glyph unicode="&#xb4;" horiz-adv-x="286" d="M84 1090h-43l86 231h201z" />
<glyph unicode="&#xb5;" horiz-adv-x="1140" d="M256 -322q-66 0 -66 70q0 53 4.5 79t32.5 173q6 35 6 59q0 35 -2 54q-10 92 -10 116v535q0 37 -9 50t-27.5 15t-96.5 2h-47v21l373 22v-673q0 -104 25.5 -141t74.5 -37q92 0 155.5 110.5t63.5 239.5v372q0 47 -11 62.5t-37 19.5t-167 4v21l408 22v-694q0 -27 1 -53.5 t9 -38.5l12 -20q20 -14 156 -15v-20l-371 -33v260q-12 -86 -61 -162q-66 -98 -156 -98q-82 0 -131 10t-88 51q-6 -23 -6 -30l4 -23q20 -98 28.5 -153.5t8.5 -98.5q0 -33 -22.5 -55.5t-53.5 -22.5z" />
<glyph unicode="&#xb6;" horiz-adv-x="1169" d="M414 1321h600v-66h-172v-1683h-66v1683h-192v-1683h-66v1003h-104q-156 0 -264.5 109t-108.5 264q0 156 108.5 264.5t264.5 108.5z" />
<glyph unicode="&#xb8;" horiz-adv-x="282" d="M174 0l-31 -51q53 0 82 -39q27 -39 17 -80q-10 -45 -44 -61.5t-83 -16.5q-51 0 -74 23v22q29 -20 61 -20q25 0 39.5 9t18.5 34q4 31 -6 51q-12 20 -35 20q-39 0 -53 -16l73 125h35z" />
<glyph unicode="&#xb9;" horiz-adv-x="395" d="M41 1298q104 0 135 7.5t66 33.5h10v-438q0 -23 14 -33q23 -6 90 -6v-10h-315v10q80 0 96.5 6t16.5 33v346q0 31 -18.5 37t-94.5 6v8z" />
<glyph unicode="&#xba;" horiz-adv-x="679" d="M41 819h405v-41h-405v41zM446 1098q0 -109 -63.5 -176.5t-138.5 -67.5q-76 0 -135 61q-68 70 -68 183q0 109 63.5 174t139.5 65q78 0 135 -59q67 -69 67 -180zM344 1098q0 115 -24.5 172t-75.5 57q-49 0 -75 -57.5t-26 -171.5q0 -117 26 -175.5t75 -58.5q51 0 75.5 58.5 t24.5 175.5z" />
<glyph unicode="&#xbb;" horiz-adv-x="655" d="M23 874l374 -442l-295 -432h-55l182 430l-252 444h46zM256 874l375 -442l-295 -432h-55l182 430l-252 444h45z" />
<glyph unicode="&#xbc;" horiz-adv-x="798" d="M672 1321h41l-514 -1321h-41zM39 1260q104 0 135 7t66 33h10v-438q0 -23 14 -33q23 -6 90 -6v-10h-315v10q80 0 96.5 6.5t16.5 32.5v346q0 31 -18.5 37t-94.5 6v9zM573 193v202l-141 -202h141zM668 162v-86q0 -29 14 -34t33.5 -7t44.5 -2v-13h-299v13q74 0 93 7t19 36v86 h-178l258 373h15v-342h92v-31h-92z" />
<glyph unicode="&#xbd;" horiz-adv-x="798" d="M655 1321h41l-514 -1321h-41zM39 1260q104 0 135 7t66 33h10v-438q0 -23 14 -33q23 -6 90 -6v-10h-315v10q80 0 96.5 6.5t16.5 32.5v346q0 31 -18.5 37t-94.5 6v9zM754 174v-31q0 -33 -3 -53t-14 -39q-29 -45 -75 -45q-59 0 -93 47q-23 31 -32 39q-12 8 -37 8 q-12 0 -26.5 -20.5t-14.5 -59.5h-17q0 96 50 146q27 27 81 46t76 58q20 37 21 86q0 47 -16.5 85t-32 46.5t-43.5 8.5q-57 0 -91 -52.5t-26 -95.5q8 20 28 21q31 0 41 -35q6 -25 -6 -44.5t-32 -19.5l-17 4q-33 14 -33 74q0 59 38 108.5t110 49.5q96 0 141 -64q35 -47 35 -110 q0 -49 -25 -76q-27 -29 -100.5 -43t-97.5 -27q-51 -25 -72 -77q10 6 23 6q12 0 92 -19q45 -10 71 -10q10 0 37 4t36 18.5t9 41.5v26z" />
<glyph unicode="&#xbe;" horiz-adv-x="798" d="M684 1321h41l-514 -1321h-41zM573 197v204l-145 -204h145zM670 164v-88q0 -29 15 -34t34.5 -8t46.5 -3v-11h-309v11q82 0 99 8t17 37v88h-184l266 383h15v-350h96v-33h-96zM205 1083q43 -8 62.5 19.5t19.5 71.5q0 51 -16.5 83.5t-63.5 32.5q-39 0 -65.5 -13t-35.5 -46 q16 10 37 -2t17 -37q-6 -35 -49 -35q-29 0 -39 25q-14 41 26.5 79.5t114.5 38.5q80 0 128 -38.5t48 -83.5q0 -43 -39 -65.5t-110 -29.5q82 0 125 -31.5t43 -97.5q0 -74 -82 -118q-63 -35 -125 -35q-63 0 -111.5 38t-48.5 87q0 27 16.5 41t38.5 14q8 0 25.5 -7t17.5 -36 q0 -41 -43 -41q-12 0 -18 2q-6 -27 28.5 -57.5t86.5 -30.5q51 0 83 41q27 33 27 84q0 76 -20 108q-20 31 -56 31q-6 0 -20 -3t-31.5 -7t-25.5 -4q-20 0 -23 12q0 14 27 14q37 -4 51 -4z" />
<glyph unicode="&#xbf;" horiz-adv-x="792" d="M473 713q-49 0 -82 32.5t-33 81.5t33 82t82 33t82 -32.5t33 -82.5q0 -49 -33 -81.5t-82 -32.5zM612 -168q-8 -12 -20 -19.5t-31 -7.5q-41 0 -67 27q-33 33 -33 90q0 14 4 38t30.5 52.5t65.5 28.5q43 0 80 -39q18 -18 26.5 -46t8.5 -67q0 -117 -72 -208 q-84 -109 -219 -109q-180 0 -274 149q-70 111 -70 246q0 98 54.5 178t172 150t156.5 111q51 55 51 137q0 31 -10 86h35q0 -156 -20.5 -209t-117.5 -131q-68 -53 -96 -127t-28 -195q0 -176 20 -252q33 -123 133 -123q117 0 182 91q49 68 50 133l-2 14q-3 6 -9 2z" />
<glyph unicode="&#xc0;" horiz-adv-x="1411" d="M815 485l-188 521l-189 -521h377zM825 461h-397l-63 -180q-25 -68 -25 -117q0 -76 57.5 -108.5t161.5 -32.5v-23h-518v23q141 0 219 106q43 59 111 246l346 962h43l440 -1200q31 -84 61.5 -99t184.5 -15v-23h-754v23q154 0 211.5 11t57.5 46l-5 20zM838 1395l-244 231 h201l86 -231h-43z" />
<glyph unicode="&#xc1;" horiz-adv-x="1411" d="M815 485l-188 521l-189 -521h377zM825 461h-397l-63 -180q-25 -68 -25 -117q0 -76 57.5 -108.5t161.5 -32.5v-23h-518v23q141 0 219 106q43 59 111 246l346 962h43l440 -1200q31 -84 61.5 -99t184.5 -15v-23h-754v23q154 0 211.5 11t57.5 46l-5 20zM637 1395h-43l86 231 h201z" />
<glyph unicode="&#xc2;" horiz-adv-x="1411" d="M815 485l-188 521l-189 -521h377zM825 461h-397l-63 -180q-25 -68 -25 -117q0 -76 57.5 -108.5t161.5 -32.5v-23h-518v23q141 0 219 106q43 59 111 246l346 962h43l440 -1200q31 -84 61.5 -99t184.5 -15v-23h-754v23q154 0 211.5 11t57.5 46l-5 20zM500 1466l201 160 l192 -133l4 -98l-213 133l-186 -133z" />
<glyph unicode="&#xc3;" horiz-adv-x="1411" d="M815 485l-188 521l-189 -521h377zM825 461h-397l-63 -180q-25 -68 -25 -117q0 -76 57.5 -108.5t161.5 -32.5v-23h-518v23q141 0 219 106q43 59 111 246l346 962h43l440 -1200q31 -84 61.5 -99t184.5 -15v-23h-754v23q154 0 211.5 11t57.5 46l-5 20zM436 1421 q88 125 135 165t98 40t122 -30.5t116 -49.5q10 -4 20 -6t21 -2q37 0 76 43q20 23 41 47l22 -10q-92 -129 -133 -166t-94 -37q-33 0 -100 31q-94 43 -140 57q-23 6 -39 6q-39 0 -67 -30q-35 -45 -53 -68z" />
<glyph unicode="&#xc4;" horiz-adv-x="1411" d="M815 485l-188 521l-189 -521h377zM825 461h-397l-63 -180q-25 -68 -25 -117q0 -76 57.5 -108.5t161.5 -32.5v-23h-518v23q141 0 219 106q43 59 111 246l346 962h43l440 -1200q31 -84 61.5 -99t184.5 -15v-23h-754v23q154 0 211.5 11t57.5 46l-5 20zM512 1626 q43 0 74 -30.5t31 -73.5t-31 -74t-74 -31t-73.5 31t-30.5 74t30.5 73.5t73.5 30.5zM871 1626q43 0 73.5 -30.5t30.5 -73.5t-30.5 -74t-73.5 -31t-74 31t-31 74t31 73.5t74 30.5z" />
<glyph unicode="&#xc5;" horiz-adv-x="1411" d="M815 485l-188 521l-189 -521h377zM825 461h-397l-63 -180q-25 -68 -25 -117q0 -76 57.5 -108.5t161.5 -32.5v-23h-518v23q141 0 219 106q43 59 111 246l346 962h43l440 -1200q31 -84 61.5 -99t184.5 -15v-23h-754v23q154 0 211.5 11t57.5 46l-5 20zM735 1638 q59 0 101.5 -42t42.5 -101t-42 -101t-102 -42q-59 0 -101 41.5t-42 101.5q0 59 42 101t101 42zM735 1591q-39 0 -67.5 -28.5t-28.5 -67.5t28.5 -67.5t67.5 -28.5t68 28.5t29 67.5t-29 67.5t-68 28.5z" />
<glyph unicode="&#xc6;" horiz-adv-x="2041" d="M731 1290l-293 -805h391v701q0 57 -8 74q-4 8 -24 16zM702 1294q-61 6 -147 6v21h1264v-512h-25q0 158 -80 301q-106 190 -301 190q-78 0 -156.5 -1t-142.5 -19q-18 -8 -25.5 -21.5t-7.5 -72.5v-477q215 0 267 43q76 66 106 352h23v-809h-23q-29 281 -104 346 q-53 45 -269 45v-547q0 -57 6.5 -71.5t40 -25.5t76.5 -13t154 -2q233 0 353 138t149 443h24v-608h-1259v20q53 0 96 6.5t69.5 16.5t30.5 18q8 16 8 76v324h-401l-63 -180q-25 -68 -25 -117q0 -78 57.5 -111t161.5 -33v-20h-518v20q141 0 219 109q45 61 111 246z" />
<glyph unicode="&#xc7;" horiz-adv-x="1120" d="M1106 549q0 -297 -113.5 -432t-328.5 -135q-244 0 -412 147q-201 176 -201 506q0 322 203 526q174 176 373 176q96 0 168 -34q92 -45 168 -148l104 193h8v-594l-18 10q0 264 -146 424q-121 133 -254 133q-178 0 -255.5 -165t-77.5 -497q0 -326 84 -492.5t256 -166.5 q195 0 299 115q125 135 124 434h19zM596 0l-31 -51q53 0 82 -39q27 -39 17 -80q-10 -45 -44 -61.5t-83 -16.5q-51 0 -74 23v22q29 -20 61 -20q25 0 39.5 9t18.5 34q4 31 -6 51q-12 20 -35 20q-39 0 -53 -16l73 125h35z" />
<glyph unicode="&#xc8;" horiz-adv-x="1421" d="M569 686v-547q0 -57 6.5 -71.5t39 -25.5t75.5 -13t154 -2q233 0 353 138t151 443h24v-608h-1331v23q182 0 242 22q20 8 27 21.5t7 70.5v1049q0 59 -8 74q-4 8 -26.5 16t-92 16t-149.5 8v21h1264v-512h-25q0 158 -80 301q-106 190 -301 190q-78 0 -156.5 -1t-140.5 -19 q-18 -8 -25.5 -21.5t-7.5 -72.5v-477q213 0 265 43q78 66 108 352h23v-809h-23q-31 281 -106 346q-54 45 -267 45zM801 1395l-244 231h201l86 -231h-43z" />
<glyph unicode="&#xc9;" horiz-adv-x="1421" d="M569 686v-547q0 -57 6.5 -71.5t39 -25.5t75.5 -13t154 -2q233 0 353 138t151 443h24v-608h-1331v23q182 0 242 22q20 8 27 21.5t7 70.5v1049q0 59 -8 74q-4 8 -26.5 16t-92 16t-149.5 8v21h1264v-512h-25q0 158 -80 301q-106 190 -301 190q-78 0 -156.5 -1t-140.5 -19 q-18 -8 -25.5 -21.5t-7.5 -72.5v-477q213 0 265 43q78 66 108 352h23v-809h-23q-31 281 -106 346q-54 45 -267 45zM662 1395h-43l86 231h201z" />
<glyph unicode="&#xca;" horiz-adv-x="1421" d="M569 686v-547q0 -57 6.5 -71.5t39 -25.5t75.5 -13t154 -2q233 0 353 138t151 443h24v-608h-1331v23q182 0 242 22q20 8 27 21.5t7 70.5v1049q0 59 -8 74q-4 8 -26.5 16t-92 16t-149.5 8v21h1264v-512h-25q0 158 -80 301q-106 190 -301 190q-78 0 -156.5 -1t-140.5 -19 q-18 -8 -25.5 -21.5t-7.5 -72.5v-477q213 0 265 43q78 66 108 352h23v-809h-23q-31 281 -106 346q-54 45 -267 45zM465 1466l201 160l192 -133l4 -98l-213 133l-186 -133z" />
<glyph unicode="&#xcb;" horiz-adv-x="1421" d="M569 686v-547q0 -57 6.5 -71.5t39 -25.5t75.5 -13t154 -2q233 0 353 138t151 443h24v-608h-1331v23q182 0 242 22q20 8 27 21.5t7 70.5v1049q0 59 -8 74q-4 8 -26.5 16t-92 16t-149.5 8v21h1264v-512h-25q0 158 -80 301q-106 190 -301 190q-78 0 -156.5 -1t-140.5 -19 q-18 -8 -25.5 -21.5t-7.5 -72.5v-477q213 0 265 43q78 66 108 352h23v-809h-23q-31 281 -106 346q-54 45 -267 45zM518 1626q43 0 74 -30.5t31 -73.5t-31 -74t-74 -31t-73.5 31t-30.5 74t30.5 73.5t73.5 30.5zM877 1626q43 0 73.5 -30.5t30.5 -73.5t-30.5 -74t-73.5 -31 t-74 31t-31 74t31 73.5t74 30.5z" />
<glyph unicode="&#xcc;" horiz-adv-x="849" d="M571 1190v-1053q0 -59 9 -76q4 -8 24 -16q59 -23 244 -22v-23h-807v23q88 0 152.5 6t88 15t30.5 22.5t7 70.5v1053q0 57 -8 72q-4 8 -26 16q-59 23 -244 22v21h809v-21q-88 0 -152.5 -6t-91.5 -16l-20 -8q-15 -12 -15 -80zM543 1395l-244 231h201l86 -231h-43z" />
<glyph unicode="&#xcd;" horiz-adv-x="849" d="M571 1190v-1053q0 -59 9 -76q4 -8 24 -16q59 -23 244 -22v-23h-807v23q88 0 152.5 6t88 15t30.5 22.5t7 70.5v1053q0 57 -8 72q-4 8 -26 16q-59 23 -244 22v21h809v-21q-88 0 -152.5 -6t-91.5 -16l-20 -8q-15 -12 -15 -80zM342 1395h-43l86 231h201z" />
<glyph unicode="&#xce;" horiz-adv-x="849" d="M571 1190v-1053q0 -59 9 -76q4 -8 24 -16q59 -23 244 -22v-23h-807v23q88 0 152.5 6t88 15t30.5 22.5t7 70.5v1053q0 57 -8 72q-4 8 -26 16q-59 23 -244 22v21h809v-21q-88 0 -152.5 -6t-91.5 -16l-20 -8q-15 -12 -15 -80zM248 1466l201 160l192 -133l4 -98l-213 133 l-186 -133z" />
<glyph unicode="&#xcf;" horiz-adv-x="849" d="M571 1190v-1053q0 -59 9 -76q4 -8 24 -16q59 -23 244 -22v-23h-807v23q88 0 152.5 6t88 15t30.5 22.5t7 70.5v1053q0 57 -8 72q-4 8 -26 16q-59 23 -244 22v21h809v-21q-88 0 -152.5 -6t-91.5 -16l-20 -8q-15 -12 -15 -80zM260 1626q43 0 74 -30.5t31 -73.5t-31 -74 t-74 -31t-73.5 31t-30.5 74t30.5 73.5t73.5 30.5zM619 1626q43 0 73.5 -30.5t30.5 -73.5t-30.5 -74t-73.5 -31t-74 31t-31 74t31 73.5t74 30.5z" />
<glyph unicode="&#xd0;" horiz-adv-x="1507" d="M326 762h-238v67h238v357q0 57 -9 74q-4 8 -26 16q-66 25 -250 24v21h799q231 0 417 -170q215 -195 216 -498q0 -299 -191 -481q-180 -172 -444 -172h-797v23q92 0 157.5 6t90 15t28.5 17q8 14 9 76v625zM578 762v-625q0 -59 7 -77.5t27.5 -26.5t88 -9t137.5 -1 q195 0 283.5 157.5t88.5 472.5q0 299 -90 467q-96 180 -282 180q-98 0 -150.5 -3t-74 -11t-28.5 -23.5t-7 -76.5v-357h348v-67h-348z" />
<glyph unicode="&#xd1;" horiz-adv-x="1423" d="M1212 406v569q0 186 -63.5 255.5t-228.5 69.5v21h579v-21q-145 0 -202.5 -69.5t-57.5 -255.5v-983h-47l-817 1081l-23 27q-6 0 -6 -37v-668q0 -225 61.5 -298.5t229.5 -73.5v-23h-596v23q160 0 219 65.5t59 257.5v696q0 115 -61 181q-74 78 -217 77v21h422l711 -922 q27 -35 32 -34q6 0 6 41zM524 1421q88 125 135 165t98 40t122 -30.5t116 -49.5q10 -4 20 -6t21 -2q37 0 76 43q20 23 41 47l22 -10q-92 -129 -133 -166t-94 -37q-33 0 -100 31q-94 43 -140 57q-23 6 -39 6q-39 0 -67 -30q-35 -45 -53 -68z" />
<glyph unicode="&#xd2;" horiz-adv-x="1298" d="M1288 662q0 -301 -203 -500q-184 -180 -415 -180q-236 0 -416 172q-203 195 -203 508q0 301 203 497q184 178 416 178q236 0 415 -170q203 -192 203 -505zM1018 662q0 324 -87 491.5t-261 167.5q-172 0 -259 -168t-87 -491q0 -319 87 -490.5t259 -171.5q170 0 259 171.5 t89 490.5zM754 1395l-244 231h201l86 -231h-43z" />
<glyph unicode="&#xd3;" horiz-adv-x="1298" d="M1288 662q0 -301 -203 -500q-184 -180 -415 -180q-236 0 -416 172q-203 195 -203 508q0 301 203 497q184 178 416 178q236 0 415 -170q203 -192 203 -505zM1018 662q0 324 -87 491.5t-261 167.5q-172 0 -259 -168t-87 -491q0 -319 87 -490.5t259 -171.5q170 0 259 171.5 t89 490.5zM553 1395h-43l86 231h201z" />
<glyph unicode="&#xd4;" horiz-adv-x="1298" d="M1288 662q0 -301 -203 -500q-184 -180 -415 -180q-236 0 -416 172q-203 195 -203 508q0 301 203 497q184 178 416 178q236 0 415 -170q203 -192 203 -505zM1018 662q0 324 -87 491.5t-261 167.5q-172 0 -259 -168t-87 -491q0 -319 87 -490.5t259 -171.5q170 0 259 171.5 t89 490.5zM457 1466l201 160l192 -133l4 -98l-213 133l-186 -133z" />
<glyph unicode="&#xd5;" horiz-adv-x="1298" d="M1288 662q0 -301 -203 -500q-184 -180 -415 -180q-236 0 -416 172q-203 195 -203 508q0 301 203 497q184 178 416 178q236 0 415 -170q203 -192 203 -505zM1018 662q0 324 -87 491.5t-261 167.5q-172 0 -259 -168t-87 -491q0 -319 87 -490.5t259 -171.5q170 0 259 171.5 t89 490.5zM414 1421q88 125 135 165t98 40t122 -30.5t116 -49.5q10 -4 20 -6t21 -2q37 0 76 43q20 23 41 47l22 -10q-92 -129 -133 -166t-94 -37q-33 0 -100 31q-94 43 -140 57q-23 6 -39 6q-39 0 -67 -30q-35 -45 -53 -68z" />
<glyph unicode="&#xd6;" horiz-adv-x="1298" d="M1288 662q0 -301 -203 -500q-184 -180 -415 -180q-236 0 -416 172q-203 195 -203 508q0 301 203 497q184 178 416 178q236 0 415 -170q203 -192 203 -505zM1018 662q0 324 -87 491.5t-261 167.5q-172 0 -259 -168t-87 -491q0 -319 87 -490.5t259 -171.5q170 0 259 171.5 t89 490.5zM512 1626q43 0 74 -30.5t31 -73.5t-31 -74t-74 -31t-73.5 31t-30.5 74t30.5 73.5t73.5 30.5zM871 1626q43 0 73.5 -30.5t30.5 -73.5t-30.5 -74t-73.5 -31t-74 31t-31 74t31 73.5t74 30.5z" />
<glyph unicode="&#xd7;" horiz-adv-x="673" d="M336 309l-260 -260l-35 35l260 260l-260 260l35 35l260 -260l260 260l35 -35l-260 -260l260 -260l-35 -35z" />
<glyph unicode="&#xd8;" horiz-adv-x="1298" d="M1114 1137q84 -90 129 -206t45 -269q0 -301 -203 -500q-184 -180 -415 -180q-106 0 -216 44t-196 126l-149 -170h-58l176 200q-82 90 -129 210t-47 270q0 301 203 497q184 178 416 178q104 0 215.5 -44t197.5 -126l148 170h57zM987 991l-618 -710q78 -281 301 -281 q170 0 259 171t89 491q0 190 -31 329zM973 1042q-39 137 -115 208t-188 71q-172 0 -259 -168t-87 -491q0 -190 30 -332z" />
<glyph unicode="&#xd9;" horiz-adv-x="1441" d="M1235 393q0 -221 -162 -334q-113 -78 -235 -77q-231 0 -387 96q-172 106 -172 295v813q0 57 -9 74q-4 8 -24 16q-66 25 -226 24v21h791v-21q-94 0 -152.5 -6t-85 -16t-30.5 -18q-10 -18 -11 -74v-772q0 -205 62 -293q74 -106 266 -107q106 0 207 76q141 106 141 303v535 q0 211 -65.5 291.5t-214.5 80.5v21h549v-21q-154 0 -205 -86q-37 -61 -37 -206v-615zM863 1395l-244 231h201l86 -231h-43z" />
<glyph unicode="&#xda;" horiz-adv-x="1441" d="M1235 393q0 -221 -162 -334q-113 -78 -235 -77q-231 0 -387 96q-172 106 -172 295v813q0 57 -9 74q-4 8 -24 16q-66 25 -226 24v21h791v-21q-94 0 -152.5 -6t-85 -16t-30.5 -18q-10 -18 -11 -74v-772q0 -205 62 -293q74 -106 266 -107q106 0 207 76q141 106 141 303v535 q0 211 -65.5 291.5t-214.5 80.5v21h549v-21q-154 0 -205 -86q-37 -61 -37 -206v-615zM662 1395h-43l86 231h201z" />
<glyph unicode="&#xdb;" horiz-adv-x="1441" d="M1235 393q0 -221 -162 -334q-113 -78 -235 -77q-231 0 -387 96q-172 106 -172 295v813q0 57 -9 74q-4 8 -24 16q-66 25 -226 24v21h791v-21q-94 0 -152.5 -6t-85 -16t-30.5 -18q-10 -18 -11 -74v-772q0 -205 62 -293q74 -106 266 -107q106 0 207 76q141 106 141 303v535 q0 211 -65.5 291.5t-214.5 80.5v21h549v-21q-154 0 -205 -86q-37 -61 -37 -206v-615zM567 1466l201 160l192 -133l4 -98l-213 133l-186 -133z" />
<glyph unicode="&#xdc;" horiz-adv-x="1441" d="M1235 393q0 -221 -162 -334q-113 -78 -235 -77q-231 0 -387 96q-172 106 -172 295v813q0 57 -9 74q-4 8 -24 16q-66 25 -226 24v21h791v-21q-94 0 -152.5 -6t-85 -16t-30.5 -18q-10 -18 -11 -74v-772q0 -205 62 -293q74 -106 266 -107q106 0 207 76q141 106 141 303v535 q0 211 -65.5 291.5t-214.5 80.5v21h549v-21q-154 0 -205 -86q-37 -61 -37 -206v-615zM641 1626q43 0 74 -30.5t31 -73.5t-31 -74t-74 -31t-73.5 31t-30.5 74t30.5 73.5t73.5 30.5zM1000 1626q43 0 73.5 -30.5t30.5 -73.5t-30.5 -74t-73.5 -31t-74 31t-31 74t31 73.5t74 30.5 z" />
<glyph unicode="&#xdd;" horiz-adv-x="1566" d="M682 559l-369 627q-43 76 -90 95t-203 19v21h807v-21q-127 0 -185 -16t-58 -57q0 -23 18 -53l328 -549l223 376q45 80 45 142q0 158 -225 157v21h549v-21q-133 0 -219 -104q-88 -145 -138 -225l-229 -387v-447q0 -59 8 -76q4 -8 28.5 -17t94.5 -15t186 -6v-23h-888v23 q117 0 186.5 6t94 15t28.5 17q8 16 8 76v422zM727 1395h-43l86 231h201z" />
<glyph unicode="&#xde;" horiz-adv-x="1388" d="M836 1030q246 0 382 -108.5t136 -280.5q0 -117 -103 -213q-127 -121 -344 -121h-311v-170q0 -59 8 -76q4 -8 28.5 -17t96.5 -15t197 -6v-23h-885v23q104 0 173 6t93.5 15t28.5 17q8 16 8 76v1053q0 53 -8 70q-4 8 -25 16q-63 23 -270 22v23h885v-23q-125 0 -197 -6 t-96.5 -15t-28.5 -17q-8 -16 -8 -76v-154h240zM596 1010v-682h207q170 0 237 88q57 76 58 241q0 174 -76 264.5t-234 90.5z" />
<glyph unicode="&#xdf;" horiz-adv-x="1323" d="M295 926q0 219 149 331q123 92 308 93q162 0 276.5 -88t114.5 -224q0 -104 -169 -193t-169 -143q0 -25 156 -73q98 -31 159 -62q80 -41 115 -92q45 -66 45 -176q0 -160 -109 -248q-86 -70 -196 -69q-94 0 -170 67q-86 76 -86 189q0 63 33.5 91.5t78.5 28.5q31 0 50 -14 q45 -33 45 -94q0 -33 -21 -62q-8 -10 -22.5 -17t-34.5 -7q-14 0 -29.5 7t-30.5 22q-18 -45 33 -113q61 -80 170 -80q111 0 168 76q47 61 47 153q0 63 -131 123l-246 99q-133 59 -133 120q0 55 121 231.5t121 303.5q0 96 -49 156.5t-131 60.5q-94 0 -146 -49 q-74 -72 -73 -254l-2 -883q0 -59 8 -76q4 -8 27.5 -17t84 -15t131.5 -6v-23h-749v23q74 0 134 6t84 15t31 22.5t7 70.5v789z" />
<glyph unicode="&#xe0;" horiz-adv-x="948" d="M569 225v273q-25 -33 -72.5 -40t-93.5 -14q-59 -14 -94 -65q-41 -61 -41 -172q0 -119 23.5 -161t75.5 -42q78 0 140 64.5t62 156.5zM575 594v119q0 82 -26.5 110.5t-114.5 28.5q-72 0 -125 -26.5t-69 -71.5q8 2 20 2q39 0 63.5 -31t24.5 -70q0 -45 -30.5 -73.5 t-71.5 -28.5q-27 0 -47 14q-59 39 -60 99q0 29 13 65q29 80 143 117q82 27 166 26q152 0 229 -57q70 -51 70 -129v-452q0 -123 6 -152q14 -70 74 -70q53 0 71.5 55.5t18.5 159.5q0 29 -1 57.5t-1 59.5v19h22v-91q0 -43 2 -81q0 -119 -28 -160q-37 -51 -150 -51 q-88 0 -131 30q-51 37 -68 125q-43 -100 -129 -135q-51 -20 -137 -20t-149 41q-88 55 -88 167q0 111 86 187q86 74 208.5 84t165.5 32.5t43 100.5zM582 1090l-244 231h201l86 -231h-43z" />
<glyph unicode="&#xe1;" horiz-adv-x="948" d="M569 225v273q-25 -33 -72.5 -40t-93.5 -14q-59 -14 -94 -65q-41 -61 -41 -172q0 -119 23.5 -161t75.5 -42q78 0 140 64.5t62 156.5zM575 594v119q0 82 -26.5 110.5t-114.5 28.5q-72 0 -125 -26.5t-69 -71.5q8 2 20 2q39 0 63.5 -31t24.5 -70q0 -45 -30.5 -73.5 t-71.5 -28.5q-27 0 -47 14q-59 39 -60 99q0 29 13 65q29 80 143 117q82 27 166 26q152 0 229 -57q70 -51 70 -129v-452q0 -123 6 -152q14 -70 74 -70q53 0 71.5 55.5t18.5 159.5q0 29 -1 57.5t-1 59.5v19h22v-91q0 -43 2 -81q0 -119 -28 -160q-37 -51 -150 -51 q-88 0 -131 30q-51 37 -68 125q-43 -100 -129 -135q-51 -20 -137 -20t-149 41q-88 55 -88 167q0 111 86 187q86 74 208.5 84t165.5 32.5t43 100.5zM381 1090h-43l86 231h201z" />
<glyph unicode="&#xe2;" horiz-adv-x="948" d="M569 225v273q-25 -33 -72.5 -40t-93.5 -14q-59 -14 -94 -65q-41 -61 -41 -172q0 -119 23.5 -161t75.5 -42q78 0 140 64.5t62 156.5zM575 594v119q0 82 -26.5 110.5t-114.5 28.5q-72 0 -125 -26.5t-69 -71.5q8 2 20 2q39 0 63.5 -31t24.5 -70q0 -45 -30.5 -73.5 t-71.5 -28.5q-27 0 -47 14q-59 39 -60 99q0 29 13 65q29 80 143 117q82 27 166 26q152 0 229 -57q70 -51 70 -129v-452q0 -123 6 -152q14 -70 74 -70q53 0 71.5 55.5t18.5 159.5q0 29 -1 57.5t-1 59.5v19h22v-91q0 -43 2 -81q0 -119 -28 -160q-37 -51 -150 -51 q-88 0 -131 30q-51 37 -68 125q-43 -100 -129 -135q-51 -20 -137 -20t-149 41q-88 55 -88 167q0 111 86 187q86 74 208.5 84t165.5 32.5t43 100.5zM289 1161l201 160l192 -133l4 -98l-213 133l-186 -133z" />
<glyph unicode="&#xe3;" horiz-adv-x="948" d="M569 225v273q-25 -33 -72.5 -40t-93.5 -14q-59 -14 -94 -65q-41 -61 -41 -172q0 -119 23.5 -161t75.5 -42q78 0 140 64.5t62 156.5zM575 594v119q0 82 -26.5 110.5t-114.5 28.5q-72 0 -125 -26.5t-69 -71.5q8 2 20 2q39 0 63.5 -31t24.5 -70q0 -45 -30.5 -73.5 t-71.5 -28.5q-27 0 -47 14q-59 39 -60 99q0 29 13 65q29 80 143 117q82 27 166 26q152 0 229 -57q70 -51 70 -129v-452q0 -123 6 -152q14 -70 74 -70q53 0 71.5 55.5t18.5 159.5q0 29 -1 57.5t-1 59.5v19h22v-91q0 -43 2 -81q0 -119 -28 -160q-37 -51 -150 -51 q-88 0 -131 30q-51 37 -68 125q-43 -100 -129 -135q-51 -20 -137 -20t-149 41q-88 55 -88 167q0 111 86 187q86 74 208.5 84t165.5 32.5t43 100.5zM37 1116q88 125 135 165t98 40t122 -30.5t116 -49.5q10 -4 20 -6t21 -2q37 0 76 43q20 23 41 47l22 -10q-92 -129 -133 -166 t-94 -37q-33 0 -100 31q-94 43 -140 57q-23 6 -39 6q-39 0 -67 -30q-35 -45 -53 -68z" />
<glyph unicode="&#xe4;" horiz-adv-x="948" d="M569 225v273q-25 -33 -72.5 -40t-93.5 -14q-59 -14 -94 -65q-41 -61 -41 -172q0 -119 23.5 -161t75.5 -42q78 0 140 64.5t62 156.5zM575 594v119q0 82 -26.5 110.5t-114.5 28.5q-72 0 -125 -26.5t-69 -71.5q8 2 20 2q39 0 63.5 -31t24.5 -70q0 -45 -30.5 -73.5 t-71.5 -28.5q-27 0 -47 14q-59 39 -60 99q0 29 13 65q29 80 143 117q82 27 166 26q152 0 229 -57q70 -51 70 -129v-452q0 -123 6 -152q14 -70 74 -70q53 0 71.5 55.5t18.5 159.5q0 29 -1 57.5t-1 59.5v19h22v-91q0 -43 2 -81q0 -119 -28 -160q-37 -51 -150 -51 q-88 0 -131 30q-51 37 -68 125q-43 -100 -129 -135q-51 -20 -137 -20t-149 41q-88 55 -88 167q0 111 86 187q86 74 208.5 84t165.5 32.5t43 100.5zM299 1321q43 0 74 -30.5t31 -73.5t-31 -74t-74 -31t-73.5 31t-30.5 74t30.5 73.5t73.5 30.5zM658 1321q43 0 73.5 -30.5 t30.5 -73.5t-30.5 -74t-73.5 -31t-74 31t-31 74t31 73.5t74 30.5z" />
<glyph unicode="&#xe5;" horiz-adv-x="948" d="M569 225v273q-25 -33 -72.5 -40t-93.5 -14q-59 -14 -94 -65q-41 -61 -41 -172q0 -119 23.5 -161t75.5 -42q78 0 140 64.5t62 156.5zM575 594v119q0 82 -26.5 110.5t-114.5 28.5q-72 0 -125 -26.5t-69 -71.5q8 2 20 2q39 0 63.5 -31t24.5 -70q0 -45 -30.5 -73.5 t-71.5 -28.5q-27 0 -47 14q-59 39 -60 99q0 29 13 65q29 80 143 117q82 27 166 26q152 0 229 -57q70 -51 70 -129v-452q0 -123 6 -152q14 -70 74 -70q53 0 71.5 55.5t18.5 159.5q0 29 -1 57.5t-1 59.5v19h22v-91q0 -43 2 -81q0 -119 -28 -160q-37 -51 -150 -51 q-88 0 -131 30q-51 37 -68 125q-43 -100 -129 -135q-51 -20 -137 -20t-149 41q-88 55 -88 167q0 111 86 187q86 74 208.5 84t165.5 32.5t43 100.5zM481 1333q59 0 101.5 -42t42.5 -101t-42 -101t-102 -42q-59 0 -101 41.5t-42 101.5q0 59 42 101t101 42zM481 1286 q-39 0 -67.5 -28.5t-28.5 -67.5t28.5 -67.5t67.5 -28.5t68 28.5t29 67.5t-29 67.5t-68 28.5z" />
<glyph unicode="&#xe6;" horiz-adv-x="1273" d="M713 788q39 39 100 62.5t115 23.5q129 0 211 -77q119 -113 118 -375h-475q0 -227 38 -321.5t141 -94.5q98 0 180 76q102 94 102 250h19q0 -152 -95.5 -251t-244.5 -99q-106 0 -182 50t-97 124q-33 -121 -137 -156q-53 -18 -197 -18q-86 0 -149 41q-88 55 -88 167 q0 113 88 191q86 78 184 78q141 0 188.5 29.5t47.5 89.5v135q0 82 -29 110.5t-117 28.5q-72 0 -125 -26.5t-69 -71.5q8 2 20 2q39 0 63.5 -31t24.5 -70q0 -45 -30.5 -73.5t-71.5 -28.5q-27 0 -47 14q-59 39 -60 99q0 29 13 65q29 80 143 117q82 27 166 26q94 0 155.5 -23.5 t96.5 -62.5zM1085 449q0 207 -26.5 305t-104.5 98q-109 0 -140.5 -91t-31.5 -312h303zM575 186v318q-33 -37 -79 -49q-59 -8 -105.5 -14.5t-81.5 -59.5q-41 -61 -41 -174q0 -119 23.5 -161t75.5 -42q106 0 157 43t51 139z" />
<glyph unicode="&#xe7;" horiz-adv-x="813" d="M649 721q-8 66 -57 99.5t-123 33.5q-115 0 -160 -102.5t-45 -323.5q0 -205 57.5 -310.5t153.5 -105.5q115 0 195 76q100 96 100 283h18q0 -180 -94 -284.5t-258 -104.5q-133 0 -248 106q-137 127 -137 324q0 211 139 346q121 117 252 116q88 0 164 -30q115 -47 142 -146 q10 -37 10 -63q0 -66 -62 -100q-23 -14 -53 -15q-37 0 -66.5 27.5t-29.5 75.5q0 43 27.5 70.5t74.5 27.5zM438 0l-31 -51q53 0 82 -39q27 -39 17 -80q-10 -45 -44 -61.5t-83 -16.5q-51 0 -74 23v22q29 -20 61 -20q25 0 39.5 9t18.5 34q4 31 -6 51q-12 20 -35 20 q-39 0 -53 -16l73 125h35z" />
<glyph unicode="&#xe8;" horiz-adv-x="817" d="M262 422q0 -219 52.5 -317.5t158.5 -98.5q113 0 199 76q104 92 104 250h19q0 -154 -98.5 -252t-262.5 -98q-137 0 -250 104q-133 123 -133 322q0 215 131 350q115 117 258 116q133 0 222 -77q129 -115 129 -375h-529zM618 449q0 197 -35.5 300t-115.5 103 q-113 0 -159 -98.5t-46 -304.5h356zM512 1090l-244 231h201l86 -231h-43z" />
<glyph unicode="&#xe9;" horiz-adv-x="817" d="M262 422q0 -219 52.5 -317.5t158.5 -98.5q113 0 199 76q104 92 104 250h19q0 -154 -98.5 -252t-262.5 -98q-137 0 -250 104q-133 123 -133 322q0 215 131 350q115 117 258 116q133 0 222 -77q129 -115 129 -375h-529zM618 449q0 197 -35.5 300t-115.5 103 q-113 0 -159 -98.5t-46 -304.5h356zM311 1090h-43l86 231h201z" />
<glyph unicode="&#xea;" horiz-adv-x="817" d="M262 422q0 -219 52.5 -317.5t158.5 -98.5q113 0 199 76q104 92 104 250h19q0 -154 -98.5 -252t-262.5 -98q-137 0 -250 104q-133 123 -133 322q0 215 131 350q115 117 258 116q133 0 222 -77q129 -115 129 -375h-529zM618 449q0 197 -35.5 300t-115.5 103 q-113 0 -159 -98.5t-46 -304.5h356zM281 1161l201 160l192 -133l4 -98l-213 133l-186 -133z" />
<glyph unicode="&#xeb;" horiz-adv-x="817" d="M262 422q0 -219 52.5 -317.5t158.5 -98.5q113 0 199 76q104 92 104 250h19q0 -154 -98.5 -252t-262.5 -98q-137 0 -250 104q-133 123 -133 322q0 215 131 350q115 117 258 116q133 0 222 -77q129 -115 129 -375h-529zM618 449q0 197 -35.5 300t-115.5 103 q-113 0 -159 -98.5t-46 -304.5h356zM229 1321q43 0 74 -30.5t31 -73.5t-31 -74t-74 -31t-73.5 31t-30.5 74t30.5 73.5t73.5 30.5zM588 1321q43 0 73.5 -30.5t30.5 -73.5t-30.5 -74t-73.5 -31t-74 31t-31 74t31 73.5t74 30.5z" />
<glyph unicode="&#xec;" horiz-adv-x="655" d="M436 872v-772q0 -41 6 -53q4 -6 19 -12q43 -14 178 -15v-20h-598v20q59 0 107.5 4.5t82.5 16.5q12 10 13 59v635q0 39 -8 49q-14 20 -27 25q-37 10 -168 10v21zM439 1090l-244 231h201l86 -231h-43z" />
<glyph unicode="&#xed;" horiz-adv-x="655" d="M436 872v-772q0 -41 6 -53q4 -6 19 -12q43 -14 178 -15v-20h-598v20q59 0 107.5 4.5t82.5 16.5q12 10 13 59v635q0 39 -8 49q-14 20 -27 25q-37 10 -168 10v21zM238 1090h-43l86 231h201z" />
<glyph unicode="&#xee;" horiz-adv-x="655" d="M436 872v-772q0 -41 6 -53q4 -6 19 -12q43 -14 178 -15v-20h-598v20q59 0 107.5 4.5t82.5 16.5q12 10 13 59v635q0 39 -8 49q-14 20 -27 25q-37 10 -168 10v21zM43 1161l201 160l192 -133l4 -98l-213 133l-186 -133z" />
<glyph unicode="&#xef;" horiz-adv-x="655" d="M436 872v-772q0 -41 6 -53q4 -6 19 -12q43 -14 178 -15v-20h-598v20q59 0 107.5 4.5t82.5 16.5q12 10 13 59v635q0 39 -8 49q-14 20 -27 25q-37 10 -168 10v21zM155 1321q43 0 74 -30.5t31 -73.5t-31 -74t-74 -31t-73.5 31t-30.5 74t30.5 73.5t73.5 30.5zM514 1321 q43 0 73.5 -30.5t30.5 -73.5t-30.5 -74t-73.5 -31t-74 31t-31 74t31 73.5t74 30.5z" />
<glyph unicode="&#xf0;" horiz-adv-x="903" d="M434 813q-104 0 -143 -176q-20 -94 -21 -236q0 -152 19 -229q41 -172 162 -172q143 0 170 211q8 68 8 209q0 172 -35 266q-47 127 -160 127zM690 1184q82 -100 126 -254t44 -316q0 -303 -92 -460q-100 -172 -305 -172q-197 0 -309.5 122.5t-112.5 335.5q0 186 96 299 t240 113q109 0 166 -47q47 -39 82 -129v98q0 47 2 94q0 82 -6.5 146.5t-22.5 122.5l-225 -113l-29 41l236 119q-66 137 -193 137q-94 0 -147 -41q-41 -31 -52 -72h-79q25 55 97.5 92t170.5 37q82 0 151.5 -29.5t126.5 -86.5l205 102l29 -41z" />
<glyph unicode="&#xf1;" horiz-adv-x="1099" d="M414 502v-402q0 -41 6 -53q4 -6 19.5 -12t55.5 -10.5t70 -4.5v-20h-524v20q45 0 89 4.5t79 16.5q12 10 12 59v621q0 18 -1 36.5t-9 28.5l-12 21q-20 14 -156 14v21l371 35v-265q12 88 53 156q57 94 120.5 101.5t82.5 7.5q129 0 204 -78q63 -66 64 -156v-543q0 -41 6 -53 q4 -6 20.5 -12t59.5 -10.5t82 -4.5v-20h-524v20q33 0 75.5 4.5t75.5 16.5q12 10 12 59v518q0 98 -16 150q-27 84 -98 84q-94 0 -154 -117q-45 -88 -63 -233zM129 1116q88 125 135 165t98 40t122 -30.5t116 -49.5q10 -4 20 -6t21 -2q37 0 76 43q20 23 41 47l22 -10 q-92 -129 -133 -166t-94 -37q-33 0 -100 31q-94 43 -140 57q-23 6 -39 6q-39 0 -67 -30q-35 -45 -53 -68z" />
<glyph unicode="&#xf2;" horiz-adv-x="917" d="M887 430q0 -199 -137 -330q-125 -119 -281 -118q-160 0 -279 110q-139 129 -139 338q0 199 137 328q125 117 281 116q158 0 279 -110q139 -127 139 -334zM674 430q0 227 -39 320q-45 106 -166 106q-111 0 -158 -102.5t-47 -323.5q0 -225 42 -327.5t163 -102.5 q111 0 158 104.5t47 325.5zM557 1090l-244 231h201l86 -231h-43z" />
<glyph unicode="&#xf3;" horiz-adv-x="917" d="M887 430q0 -199 -137 -330q-125 -119 -281 -118q-160 0 -279 110q-139 129 -139 338q0 199 137 328q125 117 281 116q158 0 279 -110q139 -127 139 -334zM674 430q0 227 -39 320q-45 106 -166 106q-111 0 -158 -102.5t-47 -323.5q0 -225 42 -327.5t163 -102.5 q111 0 158 104.5t47 325.5zM356 1090h-43l86 231h201z" />
<glyph unicode="&#xf4;" horiz-adv-x="917" d="M887 430q0 -199 -137 -330q-125 -119 -281 -118q-160 0 -279 110q-139 129 -139 338q0 199 137 328q125 117 281 116q158 0 279 -110q139 -127 139 -334zM674 430q0 227 -39 320q-45 106 -166 106q-111 0 -158 -102.5t-47 -323.5q0 -225 42 -327.5t163 -102.5 q111 0 158 104.5t47 325.5zM248 1161l201 160l192 -133l4 -98l-213 133l-186 -133z" />
<glyph unicode="&#xf5;" horiz-adv-x="917" d="M887 430q0 -199 -137 -330q-125 -119 -281 -118q-160 0 -279 110q-139 129 -139 338q0 199 137 328q125 117 281 116q158 0 279 -110q139 -127 139 -334zM674 430q0 227 -39 320q-45 106 -166 106q-111 0 -158 -102.5t-47 -323.5q0 -225 42 -327.5t163 -102.5 q111 0 158 104.5t47 325.5zM205 1116q88 125 135 165t98 40t122 -30.5t116 -49.5q10 -4 20 -6t21 -2q37 0 76 43q20 23 41 47l22 -10q-92 -129 -133 -166t-94 -37q-33 0 -100 31q-94 43 -140 57q-23 6 -39 6q-39 0 -67 -30q-35 -45 -53 -68z" />
<glyph unicode="&#xf6;" horiz-adv-x="917" d="M887 430q0 -199 -137 -330q-125 -119 -281 -118q-160 0 -279 110q-139 129 -139 338q0 199 137 328q125 117 281 116q158 0 279 -110q139 -127 139 -334zM674 430q0 227 -39 320q-45 106 -166 106q-111 0 -158 -102.5t-47 -323.5q0 -225 42 -327.5t163 -102.5 q111 0 158 104.5t47 325.5zM274 1321q43 0 74 -30.5t31 -73.5t-31 -74t-74 -31t-73.5 31t-30.5 74t30.5 73.5t73.5 30.5zM633 1321q43 0 73.5 -30.5t30.5 -73.5t-30.5 -74t-73.5 -31t-74 31t-31 74t31 73.5t74 30.5z" />
<glyph unicode="&#xf7;" d="M784 367h-620v49h620v-49zM473 297q31 0 53.5 -22.5t22.5 -53.5t-22.5 -53.5t-53.5 -22.5t-53.5 22.5t-22.5 53.5t22.5 53.5t53.5 22.5zM473 485q-31 0 -53.5 22.5t-22.5 53.5t22.5 53.5t53.5 22.5t53.5 -22.5t22.5 -53.5t-22.5 -53.5t-53.5 -22.5z" />
<glyph unicode="&#xf8;" horiz-adv-x="917" d="M655 676q-18 94 -61 137t-125 43q-111 0 -158 -102.5t-47 -323.5v-88q0 -37 8 -104zM770 741q55 -57 86 -135t31 -176q0 -199 -137 -330q-125 -119 -281 -118q-150 0 -270 104l-90 -104h-58l117 133q-55 57 -86 137t-31 178q0 199 137 328q125 117 281 116 q72 0 139.5 -25.5t130.5 -76.5l88 102h58zM666 623l-383 -441q18 -90 62 -136t124 -46q111 0 158 104.5t47 325.5v49q0 87 -8 144z" />
<glyph unicode="&#xf9;" horiz-adv-x="1067" d="M692 745q0 47 -11 62.5t-37 19.5t-167 4v21l408 22v-694q0 -27 1 -53.5t9 -38.5l12 -20q20 -14 156 -15v-20l-371 -33v260q-12 -84 -61 -156q-63 -92 -156 -102q-12 -2 -24 -2h-25q-121 0 -188 76q-57 63 -58 153v535q0 37 -9 50t-27.5 15t-96.5 2h-47v21l373 22v-673 q0 -104 25.5 -141t74.5 -37q92 0 155.5 110.5t63.5 239.5v372zM672 1090l-244 231h201l86 -231h-43z" />
<glyph unicode="&#xfa;" horiz-adv-x="1067" d="M692 745q0 47 -11 62.5t-37 19.5t-167 4v21l408 22v-694q0 -27 1 -53.5t9 -38.5l12 -20q20 -14 156 -15v-20l-371 -33v260q-12 -84 -61 -156q-63 -92 -156 -102q-12 -2 -24 -2h-25q-121 0 -188 76q-57 63 -58 153v535q0 37 -9 50t-27.5 15t-96.5 2h-47v21l373 22v-673 q0 -104 25.5 -141t74.5 -37q92 0 155.5 110.5t63.5 239.5v372zM471 1090h-43l86 231h201z" />
<glyph unicode="&#xfb;" horiz-adv-x="1067" d="M692 745q0 47 -11 62.5t-37 19.5t-167 4v21l408 22v-694q0 -27 1 -53.5t9 -38.5l12 -20q20 -14 156 -15v-20l-371 -33v260q-12 -84 -61 -156q-63 -92 -156 -102q-12 -2 -24 -2h-25q-121 0 -188 76q-57 63 -58 153v535q0 37 -9 50t-27.5 15t-96.5 2h-47v21l373 22v-673 q0 -104 25.5 -141t74.5 -37q92 0 155.5 110.5t63.5 239.5v372zM330 1161l201 160l192 -133l4 -98l-213 133l-186 -133z" />
<glyph unicode="&#xfc;" horiz-adv-x="1067" d="M692 745q0 47 -11 62.5t-37 19.5t-167 4v21l408 22v-694q0 -27 1 -53.5t9 -38.5l12 -20q20 -14 156 -15v-20l-371 -33v260q-12 -84 -61 -156q-63 -92 -156 -102q-12 -2 -24 -2h-25q-121 0 -188 76q-57 63 -58 153v535q0 37 -9 50t-27.5 15t-96.5 2h-47v21l373 22v-673 q0 -104 25.5 -141t74.5 -37q92 0 155.5 110.5t63.5 239.5v372zM389 1321q43 0 74 -30.5t31 -73.5t-31 -74t-74 -31t-73.5 31t-30.5 74t30.5 73.5t73.5 30.5zM748 1321q43 0 73.5 -30.5t30.5 -73.5t-30.5 -74t-73.5 -31t-74 31t-31 74t31 73.5t74 30.5z" />
<glyph unicode="&#xfd;" horiz-adv-x="985" d="M446 -197q-43 -125 -79 -174q-43 -57 -111 -57q-86 0 -127 17.5t-52 59.5t-11 66q0 61 57 92q23 12 47 13q39 0 68.5 -30t29.5 -79q0 -88 -82 -98q14 -14 29.5 -16.5t32.5 -2.5q55 0 90 42t74 155l65 184l-295 801q-18 47 -22 55q-12 20 -72 21h-47v22h471v-22 q-47 0 -95 -1t-48 -26l12 -41l194 -526l138 401q25 72 24 111q0 82 -137 82v22h344v-22q-78 0 -121 -38t-96 -189zM395 1090h-43l86 231h201z" />
<glyph unicode="&#xfe;" horiz-adv-x="1044" d="M446 422q0 -205 47.5 -311.5t129.5 -106.5q98 0 136 91t38 331q0 217 -23 303q-33 125 -135 125q-70 0 -125 -104q-68 -125 -68 -328zM436 582q12 106 58 184q63 109 168 108q147 0 243 -112q104 -123 105 -338q0 -147 -97 -283q-113 -160 -284 -159q-90 0 -144 96 q-37 68 -49 155v-561q0 -41 6 -53q4 -6 19 -12q43 -14 178 -15v-20h-598v20q59 0 107.5 4.5t82.5 16.5q12 10 13 59v1518q0 41 -12.5 57.5t-24.5 20.5q-37 10 -164 10v20l393 35v-751z" />
<glyph unicode="&#xff;" horiz-adv-x="921" d="M446 -197q-43 -125 -79 -174q-43 -57 -111 -57q-86 0 -127 17.5t-52 59.5t-11 66q0 61 57 92q23 12 47 13q39 0 68.5 -30t29.5 -79q0 -88 -82 -98q14 -14 29.5 -16.5t32.5 -2.5q55 0 90 42t74 155l65 184l-295 801q-18 47 -22 55q-12 20 -72 21h-47v22h471v-22 q-47 0 -95 -1t-48 -26l12 -41l194 -526l138 401q25 72 24 111q0 82 -137 82v22h344v-22q-78 0 -121 -38t-96 -189zM313 1321q43 0 74 -30.5t31 -73.5t-31 -74t-74 -31t-73.5 31t-30.5 74t30.5 73.5t73.5 30.5zM672 1321q43 0 73.5 -30.5t30.5 -73.5t-30.5 -74t-73.5 -31 t-74 31t-31 74t31 73.5t74 30.5z" />
<glyph unicode="&#x131;" horiz-adv-x="655" d="M436 872v-772q0 -41 6 -53q4 -6 19 -12q43 -14 178 -15v-20h-598v20q59 0 107.5 4.5t82.5 16.5q12 10 13 59v635q0 39 -8 49q-14 20 -27 25q-37 10 -168 10v21z" />
<glyph unicode="&#x152;" horiz-adv-x="1871" d="M797 0q-68 -18 -138 -18q-236 0 -415 172q-203 195 -203 508q0 301 203 497q184 178 415 178q66 0 138 -16h1030v-512h-25q0 158 -80 301q-106 190 -301 190q-78 0 -156.5 -1t-142.5 -19q-18 -8 -25 -21.5t-7 -72.5v-477q215 0 266 43q76 66 106 352h23v-809h-23 q-29 281 -104 346q-53 45 -268 45v-547q0 -57 7 -72.5t25 -21.5q47 -14 90 -16t154 -2q233 0 353 138t149 443h24v-608h-1095zM659 1319q-174 0 -260 -167t-86 -490q0 -319 87 -490.5t259 -171.5q72 0 99 6q53 12 69 51q8 18 9.5 41t1.5 39v1047q0 53 -11 78q-16 37 -58 47 t-110 10z" />
<glyph unicode="&#x153;" horiz-adv-x="1378" d="M743 135q-59 -72 -137 -112.5t-157 -40.5q-158 0 -275 110q-133 127 -133 338q0 199 133 328q121 117 275 116q80 0 162.5 -41.5t142.5 -113.5q117 156 272 155q133 0 221 -77q129 -115 129 -375h-528q0 -219 52 -317.5t159 -98.5q113 0 198 76q104 92 105 250h18 q0 -154 -98 -252t-262 -98q-72 0 -143 38.5t-134 114.5zM1204 449q0 197 -35.5 300t-115.5 103q-113 0 -159 -98.5t-46 -304.5h356zM653 430q0 227 -39 320q-45 106 -165 106q-111 0 -158 -102.5t-47 -323.5q0 -225 42 -327.5t163 -102.5q111 0 157.5 104.5t46.5 325.5z" />
<glyph unicode="&#x178;" horiz-adv-x="1484" d="M682 559l-369 627q-43 76 -90 95t-203 19v21h807v-21q-127 0 -185 -16t-58 -57q0 -23 18 -53l328 -549l223 376q45 80 45 142q0 158 -225 157v21h549v-21q-133 0 -219 -104q-88 -145 -138 -225l-229 -387v-447q0 -59 8 -76q4 -8 28.5 -17t94.5 -15t186 -6v-23h-888v23 q117 0 186.5 6t94 15t28.5 17q8 16 8 76v422zM604 1626q43 0 74 -30.5t31 -73.5t-31 -74t-74 -31t-73.5 31t-30.5 74t30.5 73.5t73.5 30.5zM963 1626q43 0 73.5 -30.5t30.5 -73.5t-30.5 -74t-73.5 -31t-74 31t-31 74t31 73.5t74 30.5z" />
<glyph unicode="&#x2c6;" horiz-adv-x="460" d="M43 1161l201 160l192 -133l4 -98l-213 133l-186 -133z" />
<glyph unicode="&#x2da;" horiz-adv-x="358" d="M184 1333q59 0 101.5 -42t42.5 -101t-42 -101t-102 -42q-59 0 -101 41.5t-42 101.5q0 59 42 101t101 42zM184 1286q-39 0 -67.5 -28.5t-28.5 -67.5t28.5 -67.5t67.5 -28.5t68 28.5t29 67.5t-29 67.5t-68 28.5z" />
<glyph unicode="&#x2dc;" horiz-adv-x="704" d="M41 1116q88 125 135 165t98 40t122 -30.5t116 -49.5q10 -4 20 -6t21 -2q37 0 76 43q20 23 41 47l22 -10q-92 -129 -133 -166t-94 -37q-33 0 -100 31q-94 43 -140 57q-23 6 -39 6q-39 0 -67 -30q-35 -45 -53 -68z" />
<glyph unicode="&#x2000;" horiz-adv-x="834" />
<glyph unicode="&#x2001;" horiz-adv-x="1669" />
<glyph unicode="&#x2002;" horiz-adv-x="834" />
<glyph unicode="&#x2003;" horiz-adv-x="1669" />
<glyph unicode="&#x2004;" horiz-adv-x="556" />
<glyph unicode="&#x2005;" horiz-adv-x="417" />
<glyph unicode="&#x2006;" horiz-adv-x="278" />
<glyph unicode="&#x2007;" horiz-adv-x="278" />
<glyph unicode="&#x2008;" horiz-adv-x="208" />
<glyph unicode="&#x2009;" horiz-adv-x="333" />
<glyph unicode="&#x200a;" horiz-adv-x="92" />
<glyph unicode="&#x2010;" horiz-adv-x="673" d="M455 492v-111h-414v111h414z" />
<glyph unicode="&#x2011;" horiz-adv-x="673" d="M455 492v-111h-414v111h414z" />
<glyph unicode="&#x2012;" horiz-adv-x="673" d="M455 492v-111h-414v111h414z" />
<glyph unicode="&#x2013;" horiz-adv-x="1044" d="M-4 440h1079v-71h-1079v71z" />
<glyph unicode="&#x2014;" horiz-adv-x="2048" d="M-6 440h1583v-71h-1583v71z" />
<glyph unicode="&#x2018;" horiz-adv-x="319" d="M287 1585q-66 0 -109 -25.5t-55 -89.5q-2 -14 1 -32.5t11 -20.5l17 13q18 6 34 6q39 0 70 -27t31 -70q0 -55 -30 -91t-89 -36q-55 0 -91 44t-36 116q0 246 246 246v-33z" />
<glyph unicode="&#x2019;" horiz-adv-x="319" d="M41 1247q66 0 104 23q47 29 60 92q-4 23 -4 37t-8 16l-17 -12q-18 -6 -35 -6q-39 0 -69.5 26.5t-30.5 69.5q0 55 29.5 91t89.5 36q55 0 91 -44t36 -116q0 -246 -246 -246v33z" />
<glyph unicode="&#x201a;" horiz-adv-x="319" d="M41 -168q66 0 104 23q47 29 60 92q2 14 -1 32.5t-11 20.5l-17 -12q-18 -6 -35 -6q-39 0 -69.5 26.5t-30.5 69.5q0 55 29.5 91t89.5 36q55 0 91 -44t36 -116q0 -246 -246 -246v33z" />
<glyph unicode="&#x201c;" horiz-adv-x="612" d="M582 1585q-66 0 -109 -25.5t-55 -89.5q-2 -14 1 -32.5t11 -20.5l16 13q18 6 35 6q39 0 70 -27t31 -70q0 -55 -30 -91t-89 -36q-55 0 -91 44t-36 116q0 246 246 246v-33zM287 1585q-66 0 -109 -25.5t-55 -89.5q-2 -14 1 -32.5t11 -20.5l17 13q18 6 34 6q39 0 70 -27 t31 -70q0 -55 -30 -91t-89 -36q-55 0 -91 44t-36 116q0 246 246 246v-33z" />
<glyph unicode="&#x201d;" horiz-adv-x="612" d="M336 1247q66 0 104 23q47 29 60 92q-4 23 -4 37t-9 16l-16 -12q-18 -6 -35 -6q-39 0 -69.5 26.5t-30.5 69.5q0 55 29.5 91t89.5 36q55 0 91 -44t36 -116q0 -246 -246 -246v33zM41 1247q66 0 104 23q47 29 60 92q-4 23 -4 37t-8 16l-17 -12q-18 -6 -35 -6 q-39 0 -69.5 26.5t-30.5 69.5q0 55 29.5 91t89.5 36q55 0 91 -44t36 -116q0 -246 -246 -246v33z" />
<glyph unicode="&#x201e;" horiz-adv-x="612" d="M41 -168q66 0 104 23q47 29 60 92q2 14 -1 32.5t-11 20.5l-17 -12q-18 -6 -35 -6q-39 0 -69.5 26.5t-30.5 69.5q0 55 29.5 91t89.5 36q55 0 91 -44t36 -116q0 -246 -246 -246v33zM336 -168q66 0 104 23q47 29 60 92q2 14 -1 32.5t-12 20.5l-16 -12q-18 -6 -35 -6 q-39 0 -69.5 26.5t-30.5 69.5q0 55 29.5 91t89.5 36q55 0 91 -44t36 -116q0 -246 -246 -246v33z" />
<glyph unicode="&#x2022;" horiz-adv-x="487" d="M250 733q88 0 148.5 -60.5t60.5 -148.5t-60.5 -148.5t-148.5 -60.5t-148.5 60.5t-60.5 148.5t60.5 148.5t148.5 60.5z" />
<glyph unicode="&#x2026;" horiz-adv-x="1409" d="M238 231q53 0 88.5 -35.5t35.5 -89.5q0 -53 -35.5 -88.5t-88.5 -35.5t-89 35.5t-36 88.5t36 89t89 36zM719 231q53 0 89 -35.5t36 -89.5q0 -53 -36 -88.5t-89 -35.5t-89 35.5t-36 88.5t36 89t89 36zM1200 231q53 0 89 -35.5t36 -89.5q0 -53 -36 -88.5t-89 -35.5t-89 35.5 t-36 88.5t36 89t89 36z" />
<glyph unicode="&#x202f;" horiz-adv-x="333" />
<glyph unicode="&#x2039;" horiz-adv-x="450" d="M416 874h45l-252 -444l182 -430h-55l-295 432z" />
<glyph unicode="&#x203a;" horiz-adv-x="450" d="M45 874l375 -442l-295 -432h-55l182 430l-252 444h45z" />
<glyph unicode="&#x205f;" horiz-adv-x="417" />
<glyph unicode="&#x20ac;" horiz-adv-x="1228" d="M1194 549q0 -567 -442 -567q-84 0 -190.5 37.5t-190.5 109.5q-182 160 -199 440h-152l21 68h129q0 29 4 86h-154l21 68h143q37 213 189 370q170 176 342 176q201 0 336 -182l104 193h8v-594l-18 10q0 264 -146 424q-123 133 -254 133q-143 0 -225 -164q-61 -127 -74 -366 h404l-21 -68h-387v-64v-22h408l-21 -68h-385q10 -270 84 -419.5t224 -149.5q233 0 328.5 152.5t95.5 396.5h18z" />
<glyph unicode="&#x2122;" horiz-adv-x="1806" d="M750 1321v-342h-17q-27 195 -86 266q-51 61 -147 62l-27 -2q-4 -4 -4 -41v-637q0 -49 18 -54q29 -12 168 -12v-14h-522v14q139 0 168 12q6 0 12 2q8 6 9 52v635q0 35 -5 41q-4 4 -28 4q-92 0 -142 -60q-59 -74 -90 -266h-16v340h709zM1092 1321l202 -561l168 561h334v-14 q-53 0 -87 -4.5t-73 -18.5q-6 -10 -6 -45v-612q0 -49 23 -54q31 -12 143 -12v-14h-461v14q29 0 68 1t61 11q6 0 13 2q8 6 8 52l-4 671q-6 0 -13 -18l-219 -733h-26l-258 735l-11 18q-2 -12 -2 -20v-502q0 -133 34 -175t134 -42v-14h-340v14q82 0 117 43t35 146v370 q0 104 -32 145.5t-120 41.5v14h312z" />
<glyph unicode="&#x25fc;" horiz-adv-x="870" d="M0 870h870v-870h-870v870z" />
</font>
</defs>
</svg>
